<svg id="svg" version="1.1" xmlns="http://www.w3.org/2000/svg" xmlns:xlink="http://www.w3.org/1999/xlink" width="400" height="338.72832369942194" viewBox="0, 0, 400,338.72832369942194"><g id="svgg"><path id="path0" d="M188.898 0.232 C 187.919 0.310,187.119 0.497,187.119 0.647 C 187.119 0.797,186.016 1.022,184.668 1.147 C 183.321 1.273,182.070 1.523,181.889 1.704 C 181.708 1.886,181.208 2.034,180.780 2.034 C 180.351 2.034,180.000 2.172,180.000 2.341 C 180.000 2.510,179.237 2.753,178.305 2.881 C 177.373 3.010,176.610 3.253,176.610 3.422 C 176.610 3.591,176.381 3.729,176.102 3.729 C 175.822 3.729,175.593 3.881,175.593 4.068 C 175.593 4.254,175.221 4.407,174.766 4.407 C 174.311 4.407,173.851 4.548,173.745 4.720 C 173.639 4.892,173.096 5.133,172.538 5.255 C 171.981 5.377,171.525 5.618,171.525 5.790 C 171.525 5.961,171.220 6.102,170.847 6.102 C 170.475 6.102,170.169 6.238,170.169 6.404 C 170.169 6.570,169.788 6.802,169.322 6.919 C 168.856 7.036,168.475 7.281,168.475 7.464 C 168.475 7.647,168.246 7.797,167.966 7.797 C 167.686 7.797,167.458 7.914,167.458 8.059 C 167.458 8.203,166.924 8.608,166.271 8.959 C 165.619 9.311,165.085 9.727,165.085 9.884 C 165.085 10.041,164.880 10.169,164.630 10.169 C 164.380 10.169,163.553 10.780,162.792 11.525 C 162.032 12.271,161.306 12.881,161.179 12.881 C 160.847 12.881,157.639 16.048,157.632 16.383 C 157.629 16.537,156.941 17.350,156.102 18.189 C 155.263 19.028,154.576 19.862,154.576 20.043 C 154.576 20.224,154.195 20.725,153.729 21.157 C 153.263 21.589,152.876 22.077,152.870 22.242 C 152.864 22.407,152.572 22.886,152.223 23.305 L 151.586 24.068 140.030 24.068 L 128.475 24.068 128.475 30.169 L 128.475 36.271 117.288 36.271 L 106.102 36.271 106.102 125.932 L 106.102 215.593 200.339 215.593 L 294.576 215.593 294.576 125.932 L 294.576 36.271 283.220 36.271 L 271.864 36.271 271.864 30.169 L 271.864 24.068 260.023 24.068 L 248.181 24.068 247.940 23.305 C 247.808 22.886,247.416 22.296,247.070 21.994 C 246.724 21.693,246.441 21.280,246.441 21.077 C 246.441 20.875,246.059 20.327,245.593 19.861 C 245.127 19.395,244.746 18.924,244.746 18.815 C 244.746 18.591,244.121 17.801,243.458 17.187 C 243.216 16.963,242.835 16.582,242.611 16.340 C 242.387 16.098,242.005 15.716,241.763 15.492 C 241.521 15.268,241.140 14.886,240.916 14.643 C 240.692 14.400,240.160 13.866,239.734 13.457 C 239.308 13.047,238.633 12.369,238.232 11.949 C 237.832 11.530,237.325 11.186,237.105 11.186 C 236.885 11.186,236.419 10.805,236.069 10.339 C 235.719 9.873,235.180 9.492,234.871 9.492 C 234.562 9.492,234.222 9.263,234.115 8.983 C 234.007 8.703,233.646 8.475,233.313 8.475 C 232.979 8.475,232.523 8.183,232.301 7.827 C 232.079 7.471,231.432 7.078,230.864 6.953 C 230.295 6.828,229.831 6.585,229.831 6.414 C 229.831 6.242,229.525 6.102,229.153 6.102 C 228.780 6.102,228.475 5.961,228.475 5.790 C 228.475 5.618,228.017 5.377,227.458 5.254 C 226.898 5.131,226.441 4.890,226.441 4.719 C 226.441 4.547,226.136 4.407,225.763 4.407 C 225.390 4.407,225.085 4.291,225.085 4.151 C 225.085 3.786,223.319 3.052,221.882 2.818 C 221.211 2.710,220.580 2.489,220.480 2.327 C 220.381 2.166,219.927 2.034,219.472 2.034 C 219.016 2.034,218.644 1.897,218.644 1.729 C 218.644 1.562,217.538 1.315,216.186 1.180 C 214.835 1.046,213.620 0.763,213.487 0.553 C 213.246 0.171,192.963 -0.093,188.898 0.232 M210.773 11.472 C 210.845 11.688,211.501 11.864,212.232 11.864 C 212.962 11.864,213.559 12.006,213.559 12.179 C 213.559 12.352,214.436 12.601,215.508 12.733 C 216.581 12.865,217.534 13.067,217.627 13.181 C 217.995 13.634,219.349 14.237,219.995 14.237 C 220.371 14.237,220.678 14.378,220.678 14.549 C 220.678 14.721,221.136 14.962,221.695 15.085 C 222.254 15.208,222.712 15.449,222.712 15.620 C 222.712 15.792,223.017 15.932,223.390 15.932 C 223.763 15.932,224.068 16.068,224.068 16.234 C 224.068 16.401,224.449 16.632,224.915 16.749 C 225.381 16.866,225.763 17.112,225.763 17.295 C 225.763 17.477,225.992 17.627,226.271 17.627 C 226.551 17.627,226.780 17.780,226.780 17.966 C 226.780 18.153,227.024 18.305,227.322 18.305 C 227.620 18.305,228.398 18.839,229.051 19.492 C 229.703 20.144,230.367 20.678,230.526 20.678 C 230.864 20.678,235.593 25.376,235.593 25.712 C 235.593 25.837,235.975 26.350,236.441 26.853 C 236.907 27.356,237.288 27.926,237.288 28.121 C 237.288 28.315,237.426 28.475,237.594 28.475 C 237.762 28.475,238.060 28.934,238.256 29.496 C 238.452 30.058,238.848 30.608,239.136 30.719 C 239.425 30.829,239.661 31.209,239.661 31.562 C 239.661 31.915,239.797 32.203,239.963 32.203 C 240.129 32.203,240.364 32.598,240.486 33.080 C 240.607 33.562,241.074 34.325,241.524 34.775 L 242.342 35.593 251.333 35.593 L 260.323 35.593 260.416 41.610 L 260.508 47.627 271.949 47.716 L 283.390 47.806 283.390 126.106 L 283.390 204.407 200.169 204.407 L 116.949 204.407 116.949 126.102 L 116.949 47.797 128.305 47.797 L 139.661 47.797 139.661 41.695 L 139.661 35.593 149.007 35.593 C 159.231 35.593,159.132 35.612,159.538 33.579 C 159.652 33.009,159.879 32.542,160.042 32.542 C 160.206 32.542,160.339 32.314,160.339 32.034 C 160.339 31.754,160.492 31.525,160.678 31.525 C 160.864 31.525,161.017 31.315,161.017 31.058 C 161.017 30.802,161.246 30.402,161.525 30.169 C 161.805 29.937,162.034 29.471,162.034 29.134 C 162.034 28.796,162.331 28.426,162.695 28.311 C 163.058 28.195,163.459 27.775,163.585 27.377 C 163.848 26.548,170.949 19.322,171.501 19.322 C 171.701 19.322,171.864 19.180,171.864 19.006 C 171.864 18.832,172.208 18.581,172.627 18.449 C 173.047 18.316,173.619 17.949,173.898 17.633 C 174.178 17.316,174.791 16.963,175.261 16.847 C 175.731 16.731,176.449 16.325,176.857 15.945 C 177.265 15.565,177.881 15.254,178.226 15.254 C 178.571 15.254,179.150 15.030,179.511 14.757 C 179.873 14.483,180.436 14.254,180.763 14.248 C 181.089 14.242,181.356 14.085,181.356 13.898 C 181.356 13.712,181.737 13.559,182.203 13.559 C 182.669 13.559,183.051 13.418,183.051 13.245 C 183.051 13.072,183.892 12.825,184.920 12.697 C 185.948 12.568,186.872 12.328,186.974 12.164 C 187.075 11.999,187.607 11.864,188.156 11.864 C 188.704 11.864,189.153 11.719,189.153 11.542 C 189.153 10.804,210.527 10.735,210.773 11.472 M198.644 57.288 C 198.644 57.475,198.263 57.627,197.797 57.627 C 197.331 57.627,196.949 57.770,196.949 57.945 C 196.949 58.120,196.263 58.366,195.424 58.492 C 194.585 58.618,193.898 58.856,193.898 59.022 C 193.898 59.187,193.517 59.322,193.051 59.322 C 192.585 59.322,192.203 59.460,192.203 59.629 C 192.203 59.798,191.441 60.041,190.508 60.169 C 189.576 60.298,188.814 60.541,188.814 60.710 C 188.814 60.879,188.508 61.017,188.136 61.017 C 187.763 61.017,187.458 61.152,187.458 61.317 C 187.458 61.483,186.775 61.720,185.940 61.846 C 185.105 61.971,184.334 62.217,184.225 62.392 C 184.117 62.568,183.655 62.712,183.200 62.712 C 182.745 62.712,182.373 62.864,182.373 63.051 C 182.373 63.237,182.144 63.390,181.864 63.390 C 181.585 63.390,181.356 63.523,181.356 63.685 C 181.356 63.848,180.599 64.081,179.675 64.203 C 178.750 64.326,177.902 64.575,177.791 64.756 C 177.679 64.937,177.215 65.085,176.760 65.085 C 176.305 65.085,175.932 65.218,175.932 65.380 C 175.932 65.543,175.322 65.774,174.576 65.893 C 173.831 66.012,173.220 66.260,173.220 66.445 C 173.220 66.629,172.839 66.780,172.373 66.780 C 171.907 66.780,171.525 66.932,171.525 67.119 C 171.525 67.305,171.144 67.458,170.678 67.458 C 170.212 67.458,169.831 67.590,169.831 67.752 C 169.831 67.914,169.185 68.133,168.397 68.239 C 167.609 68.344,166.910 68.593,166.843 68.792 C 166.777 68.990,166.355 69.153,165.904 69.153 C 165.453 69.153,165.085 69.291,165.085 69.460 C 165.085 69.629,164.322 69.872,163.390 70.000 C 162.458 70.128,161.695 70.371,161.695 70.540 C 161.695 70.709,161.314 70.847,160.847 70.847 C 160.381 70.847,160.000 70.987,160.000 71.157 C 160.000 71.327,159.391 71.569,158.646 71.695 C 157.901 71.820,157.206 72.063,157.100 72.233 C 156.995 72.403,156.537 72.542,156.082 72.542 C 155.627 72.542,155.254 72.695,155.254 72.881 C 155.254 73.068,154.873 73.220,154.407 73.220 C 153.941 73.220,153.559 73.364,153.559 73.539 C 153.559 73.714,152.873 73.960,152.034 74.086 C 151.195 74.211,150.508 74.449,150.508 74.615 C 150.508 74.780,150.127 74.915,149.661 74.915 C 149.195 74.915,148.814 75.050,148.814 75.216 C 148.814 75.381,148.131 75.619,147.296 75.744 C 146.461 75.869,145.690 76.115,145.581 76.291 C 145.473 76.466,145.088 76.610,144.726 76.610 C 144.364 76.610,144.068 76.763,144.068 76.949 C 144.068 77.136,143.686 77.288,143.220 77.288 C 142.754 77.288,142.373 77.426,142.373 77.595 C 142.373 77.764,141.610 78.007,140.678 78.136 C 139.746 78.264,138.983 78.507,138.983 78.676 C 138.983 78.845,138.602 78.983,138.136 78.983 C 137.669 78.983,137.288 79.134,137.288 79.318 C 137.288 79.502,136.675 79.751,135.925 79.871 C 135.175 79.991,134.479 80.222,134.379 80.384 C 134.279 80.545,133.825 80.678,133.370 80.678 C 132.915 80.678,132.542 80.811,132.542 80.974 C 132.542 81.136,131.932 81.367,131.186 81.486 C 130.441 81.605,129.831 81.854,129.831 82.038 C 129.831 82.222,129.449 82.373,128.983 82.373 C 128.517 82.373,128.136 82.525,128.136 82.712 C 128.136 82.898,127.754 83.051,127.288 83.051 C 126.822 83.051,126.441 83.203,126.441 83.390 C 126.441 83.576,126.076 83.729,125.629 83.729 C 125.183 83.729,124.740 83.932,124.645 84.180 C 124.438 84.719,125.141 87.119,125.507 87.119 C 125.647 87.119,125.763 87.500,125.763 87.966 C 125.763 88.432,125.901 88.814,126.070 88.814 C 126.239 88.814,126.482 89.576,126.610 90.508 C 126.738 91.441,126.982 92.203,127.150 92.203 C 127.319 92.203,127.458 92.519,127.458 92.906 C 127.458 93.292,127.676 93.826,127.942 94.092 C 128.492 94.642,129.831 94.748,129.831 94.241 C 129.831 94.057,130.441 93.809,131.186 93.689 C 131.932 93.570,132.542 93.340,132.542 93.177 C 132.542 93.014,132.924 92.881,133.390 92.881 C 133.856 92.881,134.237 92.729,134.237 92.542 C 134.237 92.356,134.610 92.203,135.065 92.203 C 135.520 92.203,135.974 92.071,136.074 91.909 C 136.174 91.747,136.870 91.516,137.620 91.396 C 138.370 91.277,138.983 91.028,138.983 90.843 C 138.983 90.659,139.364 90.508,139.831 90.508 C 140.297 90.508,140.678 90.370,140.678 90.201 C 140.678 90.032,141.441 89.789,142.373 89.661 C 143.305 89.533,144.068 89.290,144.068 89.121 C 144.068 88.952,144.449 88.814,144.915 88.814 C 145.381 88.814,145.763 88.670,145.763 88.495 C 145.763 88.320,146.449 88.074,147.288 87.948 C 148.127 87.823,148.814 87.584,148.814 87.419 C 148.814 87.254,149.195 87.119,149.661 87.119 C 150.127 87.119,150.508 86.966,150.508 86.780 C 150.508 86.593,150.890 86.441,151.356 86.441 C 151.822 86.441,152.203 86.297,152.203 86.122 C 152.203 85.947,152.890 85.701,153.729 85.576 C 154.568 85.450,155.254 85.212,155.254 85.046 C 155.254 84.881,155.636 84.746,156.102 84.746 C 156.568 84.746,156.949 84.611,156.949 84.445 C 156.949 84.280,157.632 84.042,158.467 83.917 C 159.301 83.792,160.073 83.546,160.182 83.370 C 160.290 83.195,160.675 83.051,161.037 83.051 C 161.399 83.051,161.695 82.898,161.695 82.712 C 161.695 82.525,162.076 82.373,162.542 82.373 C 163.008 82.373,163.390 82.235,163.390 82.066 C 163.390 81.897,164.153 81.654,165.085 81.525 C 166.017 81.397,166.780 81.154,166.780 80.985 C 166.780 80.816,167.008 80.678,167.288 80.678 C 167.568 80.678,167.797 80.540,167.797 80.371 C 167.797 80.202,168.559 79.959,169.491 79.831 C 170.423 79.702,171.271 79.459,171.376 79.290 C 171.480 79.121,171.938 78.983,172.393 78.983 C 172.848 78.983,173.220 78.850,173.220 78.687 C 173.220 78.525,173.831 78.294,174.576 78.175 C 175.322 78.056,175.932 77.807,175.932 77.623 C 175.932 77.439,176.314 77.288,176.780 77.288 C 177.246 77.288,177.627 77.136,177.627 76.949 C 177.627 76.763,178.008 76.610,178.475 76.610 C 178.941 76.610,179.322 76.475,179.322 76.310 C 179.322 76.144,180.008 75.906,180.847 75.780 C 181.686 75.655,182.373 75.408,182.373 75.233 C 182.373 75.058,182.754 74.915,183.220 74.915 C 183.686 74.915,184.068 74.777,184.068 74.608 C 184.068 74.439,184.831 74.196,185.763 74.068 C 186.695 73.940,187.458 73.696,187.458 73.528 C 187.458 73.359,187.839 73.220,188.305 73.220 C 188.771 73.220,189.153 73.068,189.153 72.881 C 189.153 72.695,189.458 72.542,189.831 72.542 C 190.203 72.542,190.508 72.404,190.508 72.235 C 190.508 72.066,191.271 71.823,192.203 71.695 C 193.136 71.567,193.898 71.324,193.898 71.155 C 193.898 70.986,194.280 70.847,194.746 70.847 C 195.212 70.847,195.593 70.712,195.593 70.547 C 195.593 70.382,196.280 70.144,197.119 70.018 C 197.958 69.892,198.644 69.646,198.644 69.471 C 198.644 69.049,201.258 69.059,201.519 69.482 C 201.631 69.663,202.479 69.911,203.404 70.034 C 204.328 70.156,205.085 70.390,205.085 70.552 C 205.085 70.715,205.466 70.847,205.932 70.847 C 206.398 70.847,206.780 70.998,206.780 71.182 C 206.780 71.367,207.390 71.615,208.136 71.734 C 208.881 71.853,209.492 72.084,209.492 72.247 C 209.492 72.409,209.873 72.542,210.339 72.542 C 210.805 72.542,211.186 72.695,211.186 72.881 C 211.186 73.068,211.559 73.220,212.014 73.220 C 212.469 73.220,212.923 73.353,213.023 73.515 C 213.123 73.677,213.819 73.907,214.569 74.027 C 215.319 74.147,215.932 74.396,215.932 74.580 C 215.932 74.765,216.314 74.915,216.780 74.915 C 217.246 74.915,217.627 75.053,217.627 75.222 C 217.627 75.391,218.390 75.635,219.322 75.763 C 220.254 75.891,221.017 76.134,221.017 76.303 C 221.017 76.472,221.322 76.610,221.695 76.610 C 222.068 76.610,222.373 76.763,222.373 76.949 C 222.373 77.136,222.745 77.288,223.200 77.288 C 223.655 77.288,224.117 77.432,224.225 77.608 C 224.334 77.783,225.105 78.029,225.940 78.154 C 226.775 78.280,227.458 78.517,227.458 78.683 C 227.458 78.848,227.839 78.983,228.305 78.983 C 228.771 78.983,229.153 79.126,229.153 79.301 C 229.153 79.476,229.839 79.722,230.678 79.848 C 231.517 79.974,232.203 80.212,232.203 80.377 C 232.203 80.543,232.585 80.678,233.051 80.678 C 233.517 80.678,233.898 80.811,233.898 80.974 C 233.898 81.136,234.508 81.367,235.254 81.486 C 236.000 81.605,236.610 81.854,236.610 82.038 C 236.610 82.222,236.983 82.373,237.438 82.373 C 237.893 82.373,238.359 82.525,238.475 82.712 C 238.590 82.898,239.056 83.051,239.512 83.051 C 239.967 83.051,240.339 83.189,240.339 83.358 C 240.339 83.527,241.102 83.770,242.034 83.898 C 242.966 84.027,243.729 84.232,243.729 84.356 C 243.729 84.692,245.548 85.432,246.924 85.655 C 247.590 85.763,248.136 85.984,248.136 86.146 C 248.136 86.308,248.593 86.441,249.153 86.441 C 249.712 86.441,250.169 86.563,250.169 86.713 C 250.169 87.035,253.128 88.140,253.983 88.137 C 254.309 88.136,254.576 88.288,254.576 88.475 C 254.576 88.661,254.958 88.814,255.424 88.814 C 255.890 88.814,256.271 88.949,256.271 89.114 C 256.271 89.279,256.958 89.517,257.797 89.643 C 258.636 89.769,259.322 90.015,259.322 90.190 C 259.322 90.365,259.703 90.508,260.169 90.508 C 260.636 90.508,261.017 90.647,261.017 90.816 C 261.017 90.985,261.780 91.228,262.712 91.356 C 263.644 91.484,264.407 91.727,264.407 91.896 C 264.407 92.065,264.788 92.203,265.254 92.203 C 265.720 92.203,266.102 92.356,266.102 92.542 C 266.102 92.729,266.398 92.881,266.760 92.881 C 267.122 92.881,267.506 93.025,267.615 93.201 C 267.724 93.376,268.495 93.623,269.330 93.748 C 270.165 93.873,270.847 94.111,270.847 94.276 C 270.847 94.441,271.229 94.576,271.695 94.576 C 272.373 94.576,272.542 94.407,272.542 93.729 C 272.542 93.263,272.686 92.881,272.861 92.881 C 273.036 92.881,273.282 92.195,273.408 91.356 C 273.533 90.517,273.772 89.831,273.937 89.831 C 274.102 89.831,274.237 89.449,274.237 88.983 C 274.237 88.517,274.390 88.136,274.576 88.136 C 274.763 88.136,274.915 87.754,274.915 87.288 C 274.915 86.822,275.068 86.441,275.254 86.441 C 275.441 86.441,275.593 85.831,275.593 85.085 C 275.593 83.955,275.480 83.729,274.915 83.729 C 274.542 83.729,274.237 83.576,274.237 83.390 C 274.237 83.203,273.856 83.051,273.390 83.051 C 272.924 83.051,272.542 82.916,272.542 82.750 C 272.542 82.585,272.123 82.363,271.610 82.257 C 269.412 81.802,267.458 81.183,267.458 80.940 C 267.458 80.796,267.153 80.678,266.780 80.678 C 266.407 80.678,266.102 80.540,266.102 80.371 C 266.102 80.202,265.339 79.959,264.407 79.831 C 263.475 79.702,262.712 79.459,262.712 79.290 C 262.712 79.121,262.331 78.983,261.864 78.983 C 261.398 78.983,261.017 78.840,261.017 78.665 C 261.017 78.490,260.331 78.244,259.492 78.118 C 258.653 77.992,257.966 77.754,257.966 77.589 C 257.966 77.423,257.585 77.288,257.119 77.288 C 256.653 77.288,256.271 77.136,256.271 76.949 C 256.271 76.763,255.890 76.610,255.424 76.610 C 254.958 76.610,254.576 76.458,254.576 76.271 C 254.576 76.085,254.256 75.932,253.865 75.932 C 253.227 75.932,251.624 75.349,250.135 74.576 C 249.836 74.421,248.882 74.187,248.016 74.058 C 247.150 73.928,246.441 73.686,246.441 73.521 C 246.441 73.356,246.059 73.220,245.593 73.220 C 245.127 73.220,244.746 73.093,244.746 72.936 C 244.746 72.780,243.869 72.380,242.797 72.047 C 241.725 71.714,240.583 71.307,240.259 71.144 C 239.935 70.981,239.363 70.847,238.988 70.847 C 238.612 70.847,238.305 70.697,238.305 70.512 C 238.305 70.328,237.695 70.080,236.949 69.961 C 236.203 69.841,235.593 69.611,235.593 69.448 C 235.593 69.286,235.212 69.153,234.746 69.153 C 234.280 69.153,233.898 69.014,233.898 68.845 C 233.898 68.676,233.136 68.433,232.203 68.305 C 231.271 68.177,230.508 67.934,230.508 67.765 C 230.508 67.596,230.203 67.458,229.831 67.458 C 229.458 67.458,229.153 67.305,229.153 67.119 C 229.153 66.932,228.771 66.780,228.305 66.780 C 227.839 66.780,227.458 66.641,227.458 66.472 C 227.458 66.304,226.695 66.060,225.763 65.932 C 224.831 65.804,224.068 65.561,224.068 65.392 C 224.068 65.223,223.763 65.085,223.390 65.085 C 223.017 65.085,222.712 64.947,222.712 64.778 C 222.712 64.609,221.949 64.365,221.017 64.237 C 220.085 64.109,219.322 63.866,219.322 63.697 C 219.322 63.528,218.941 63.390,218.475 63.390 C 218.008 63.390,217.627 63.237,217.627 63.051 C 217.627 62.864,217.246 62.712,216.780 62.712 C 216.314 62.712,215.932 62.569,215.932 62.394 C 215.932 62.219,215.246 61.973,214.407 61.847 C 213.568 61.721,212.881 61.483,212.881 61.317 C 212.881 61.152,212.500 61.017,212.034 61.017 C 211.568 61.017,211.186 60.884,211.186 60.721 C 211.186 60.559,210.576 60.328,209.831 60.209 C 209.085 60.090,208.475 59.841,208.475 59.657 C 208.475 59.473,208.102 59.322,207.647 59.322 C 207.192 59.322,206.734 59.184,206.630 59.015 C 206.525 58.846,205.677 58.603,204.745 58.475 C 203.813 58.346,203.051 58.103,203.051 57.934 C 203.051 57.765,202.669 57.627,202.203 57.627 C 201.737 57.627,201.356 57.475,201.356 57.288 C 201.356 57.102,200.746 56.949,200.000 56.949 C 199.254 56.949,198.644 57.102,198.644 57.288 M131.525 99.492 C 131.525 102.701,131.528 102.712,132.373 102.712 C 133.164 102.712,133.220 102.825,133.220 104.407 C 133.220 105.339,133.337 106.102,133.479 106.102 C 133.621 106.102,133.888 106.445,134.072 106.864 C 134.348 107.493,134.719 107.645,136.186 107.730 L 137.966 107.832 137.966 111.035 C 137.966 112.944,137.829 114.237,137.627 114.237 C 137.408 114.237,137.288 118.418,137.288 126.102 C 137.288 133.785,137.169 137.966,136.949 137.966 C 136.730 137.966,136.610 142.081,136.610 149.633 C 136.610 163.459,136.845 162.373,133.862 162.373 L 131.525 162.373 131.525 167.458 L 131.525 172.542 200.339 172.542 L 269.153 172.542 269.153 167.458 L 269.153 162.373 266.495 162.373 L 263.838 162.373 263.614 153.165 C 263.491 148.101,263.390 140.016,263.390 135.199 C 263.390 129.586,263.268 126.441,263.051 126.441 C 262.833 126.441,262.712 123.107,262.712 117.119 L 262.712 107.797 264.162 107.797 C 265.660 107.797,266.780 106.997,266.780 105.928 C 266.780 105.651,266.932 105.424,267.119 105.424 C 267.305 105.424,267.458 104.966,267.458 104.407 C 267.458 103.847,267.305 103.390,267.119 103.390 C 266.932 103.390,266.780 103.237,266.780 103.051 C 266.780 102.864,267.161 102.712,267.627 102.712 C 268.472 102.712,268.475 102.701,268.475 99.492 L 268.475 96.271 200.000 96.271 L 131.525 96.271 131.525 99.492 M161.758 104.704 C 161.937 107.188,162.484 107.797,164.534 107.797 L 166.066 107.797 165.864 124.492 C 165.753 133.674,165.532 141.237,165.373 141.299 C 165.215 141.362,165.085 146.129,165.085 151.893 L 165.085 162.373 157.513 162.373 L 149.941 162.373 149.717 145.339 C 149.593 135.970,149.492 125.521,149.492 122.119 C 149.492 118.221,149.366 115.932,149.153 115.932 C 148.945 115.932,148.814 114.350,148.814 111.864 L 148.814 107.797 150.363 107.797 C 151.857 107.797,152.881 107.255,152.881 106.465 C 152.881 106.265,153.034 106.102,153.220 106.102 C 153.407 106.102,153.559 105.339,153.559 104.407 L 153.559 102.712 157.586 102.712 L 161.613 102.712 161.758 104.704 M190.508 103.051 C 190.508 103.237,190.356 103.390,190.169 103.390 C 189.983 103.390,189.831 103.847,189.831 104.407 C 189.831 104.966,189.983 105.424,190.169 105.424 C 190.356 105.424,190.508 105.651,190.508 105.928 C 190.508 106.997,191.628 107.797,193.126 107.797 L 194.576 107.797 194.576 114.746 C 194.576 119.153,194.452 121.695,194.237 121.695 C 194.018 121.695,193.898 125.869,193.898 133.539 C 193.898 141.070,193.775 145.460,193.559 145.593 C 193.348 145.724,193.220 148.930,193.220 154.088 L 193.220 162.373 186.102 162.373 L 178.983 162.373 178.983 161.037 C 178.983 160.302,178.831 159.607,178.644 159.492 C 178.429 159.358,178.305 154.978,178.305 147.466 C 178.305 140.846,178.172 135.600,178.002 135.537 C 177.835 135.474,177.643 129.269,177.572 121.610 L 177.445 107.797 179.020 107.797 C 181.017 107.797,181.445 107.292,181.631 104.717 L 181.776 102.712 186.142 102.712 C 188.827 102.712,190.508 102.842,190.508 103.051 M218.492 104.563 C 218.514 106.849,219.375 107.797,221.430 107.797 L 222.756 107.797 222.516 127.712 C 222.384 138.665,222.145 147.678,221.985 147.740 C 221.826 147.802,221.695 151.120,221.695 155.113 L 221.695 162.373 214.460 162.373 L 207.225 162.373 207.003 157.034 C 206.882 154.097,206.781 147.242,206.781 141.800 C 206.780 135.570,206.654 131.827,206.441 131.695 C 206.225 131.562,206.102 127.172,206.102 119.641 L 206.102 107.797 207.406 107.797 C 209.425 107.797,210.169 106.941,210.169 104.621 L 210.169 102.712 214.322 102.712 L 218.475 102.713 218.492 104.563 M247.119 104.572 C 247.119 107.008,247.759 107.797,249.736 107.797 L 251.186 107.797 251.186 117.458 C 251.186 123.672,251.066 127.119,250.847 127.119 C 250.630 127.119,250.508 130.321,250.508 136.047 C 250.508 140.957,250.408 148.889,250.285 153.674 L 250.061 162.373 242.827 162.373 L 235.593 162.373 235.593 157.458 C 235.593 154.407,235.465 152.542,235.254 152.542 C 235.035 152.542,234.915 148.362,234.915 140.678 C 234.915 132.994,234.796 128.814,234.576 128.814 C 234.358 128.814,234.237 125.085,234.237 118.305 L 234.237 107.797 235.651 107.797 C 237.721 107.797,238.305 107.113,238.305 104.693 L 238.305 102.712 242.712 102.712 L 247.119 102.712 247.119 104.572 M126.441 181.356 L 126.441 184.746 200.339 184.746 L 274.237 184.746 274.237 181.356 L 274.237 177.966 200.339 177.966 L 126.441 177.966 126.441 181.356 M122.373 191.017 L 122.373 194.237 200.339 194.237 L 278.305 194.237 278.305 191.017 L 278.305 187.797 200.339 187.797 L 122.373 187.797 122.373 191.017 M101.186 261.032 C 100.254 261.196,98.919 261.429,98.220 261.550 C 97.521 261.670,96.949 261.905,96.949 262.071 C 96.949 262.237,96.568 262.373,96.102 262.373 C 95.636 262.373,95.254 262.508,95.254 262.674 C 95.254 262.840,94.720 263.076,94.068 263.198 C 93.415 263.320,92.881 263.566,92.881 263.744 C 92.881 263.922,92.576 264.068,92.203 264.068 C 91.831 264.068,91.525 264.208,91.525 264.380 C 91.525 264.551,91.097 264.786,90.574 264.901 C 90.051 265.016,89.407 265.409,89.144 265.775 C 88.880 266.141,88.466 266.441,88.224 266.441 C 87.982 266.441,87.266 266.975,86.632 267.627 C 85.999 268.280,85.344 268.814,85.176 268.814 C 84.810 268.814,83.051 270.606,83.051 270.979 C 83.051 271.124,82.517 271.761,81.864 272.395 C 81.212 273.029,80.678 273.779,80.678 274.062 C 80.678 274.345,80.549 274.576,80.392 274.576 C 80.235 274.576,79.816 275.148,79.460 275.847 C 79.105 276.547,78.728 277.195,78.624 277.288 C 77.952 277.891,77.288 279.275,77.288 280.075 C 77.288 280.593,77.136 281.017,76.949 281.017 C 76.763 281.017,76.610 281.246,76.610 281.525 C 76.610 281.805,76.472 282.034,76.303 282.034 C 76.134 282.034,75.891 282.797,75.763 283.729 C 75.635 284.661,75.391 285.424,75.222 285.424 C 75.053 285.424,74.915 285.796,74.915 286.251 C 74.915 286.706,74.763 287.173,74.576 287.288 C 74.390 287.403,74.237 288.068,74.237 288.766 C 74.237 289.463,74.047 290.225,73.814 290.458 C 73.496 290.776,73.390 293.157,73.390 300.000 C 73.390 306.843,73.496 309.224,73.814 309.542 C 74.047 309.775,74.237 310.546,74.237 311.254 C 74.237 311.963,74.390 312.542,74.576 312.542 C 74.763 312.542,74.915 312.924,74.915 313.390 C 74.915 313.856,75.047 314.237,75.207 314.237 C 75.367 314.237,75.594 315.037,75.709 316.015 C 75.825 316.993,76.075 317.844,76.265 317.908 C 76.455 317.971,76.610 318.391,76.610 318.842 C 76.610 319.292,76.763 319.661,76.949 319.661 C 77.136 319.661,77.288 319.829,77.288 320.034 C 77.288 320.497,78.355 322.821,78.674 323.051 C 78.803 323.144,79.253 323.882,79.674 324.691 C 80.094 325.499,80.639 326.238,80.884 326.332 C 81.129 326.426,81.433 326.827,81.559 327.223 C 81.822 328.054,86.543 332.881,87.091 332.881 C 87.293 332.881,87.458 333.024,87.458 333.197 C 87.458 333.371,87.801 333.622,88.220 333.754 C 88.640 333.887,89.230 334.279,89.531 334.625 C 89.833 334.971,90.329 335.254,90.633 335.254 C 90.937 335.254,91.186 335.395,91.186 335.566 C 91.186 335.738,91.644 335.979,92.203 336.102 C 92.763 336.225,93.220 336.465,93.220 336.637 C 93.220 336.809,93.525 336.949,93.898 336.949 C 94.271 336.949,94.576 337.084,94.576 337.250 C 94.576 337.415,95.301 337.659,96.186 337.791 C 97.072 337.924,97.905 338.208,98.038 338.423 C 98.382 338.978,119.584 338.978,119.928 338.423 C 120.061 338.208,120.894 337.924,121.780 337.791 C 122.665 337.659,123.390 337.415,123.390 337.250 C 123.390 337.084,123.619 336.949,123.898 336.949 C 124.178 336.949,124.407 336.814,124.407 336.648 C 124.407 336.482,124.941 336.246,125.593 336.124 C 126.246 336.002,126.780 335.756,126.780 335.578 C 126.780 335.400,127.007 335.254,127.285 335.254 C 127.563 335.254,127.981 334.949,128.214 334.576 C 128.447 334.203,128.881 333.898,129.178 333.898 C 129.475 333.898,130.126 333.441,130.625 332.881 C 131.123 332.322,131.688 331.864,131.880 331.864 C 132.399 331.864,134.915 329.201,134.915 328.653 C 134.915 328.394,135.213 328.087,135.576 327.972 C 135.939 327.856,136.331 327.465,136.446 327.101 C 136.562 326.738,136.798 326.441,136.972 326.441 C 137.146 326.441,137.288 326.212,137.288 325.932 C 137.288 325.653,137.438 325.424,137.621 325.424 C 137.804 325.424,138.049 325.042,138.166 324.576 C 138.283 324.110,138.515 323.729,138.681 323.729 C 138.847 323.729,138.983 323.424,138.983 323.051 C 138.983 322.678,139.136 322.373,139.322 322.373 C 139.508 322.373,139.661 322.144,139.661 321.864 C 139.661 321.585,139.801 321.356,139.973 321.356 C 140.145 321.356,140.393 320.860,140.524 320.254 C 140.656 319.648,140.858 319.076,140.975 318.983 C 141.505 318.559,142.067 317.144,142.257 315.755 C 142.371 314.920,142.597 314.237,142.758 314.237 C 142.919 314.237,143.051 313.640,143.051 312.910 C 143.051 312.149,143.232 311.522,143.475 311.441 C 143.802 311.331,143.898 308.738,143.898 300.000 C 143.898 291.262,143.802 288.668,143.475 288.559 C 143.242 288.482,143.051 287.897,143.051 287.260 C 143.051 286.623,142.913 286.102,142.744 286.102 C 142.575 286.102,142.332 285.339,142.203 284.407 C 142.075 283.475,141.832 282.712,141.663 282.712 C 141.494 282.712,141.356 282.331,141.356 281.864 C 141.356 281.398,141.203 281.017,141.017 281.017 C 140.831 281.017,140.678 280.741,140.678 280.404 C 140.678 280.067,140.454 279.494,140.180 279.133 C 139.907 278.771,139.678 278.208,139.672 277.881 C 139.666 277.555,139.508 277.288,139.322 277.288 C 139.136 277.288,138.983 277.059,138.983 276.780 C 138.983 276.500,138.841 276.271,138.667 276.271 C 138.493 276.271,138.242 275.928,138.110 275.508 C 137.977 275.089,137.586 274.499,137.240 274.198 C 136.893 273.896,136.610 273.490,136.610 273.296 C 136.610 272.852,130.928 267.119,130.488 267.119 C 130.309 267.119,129.681 266.657,129.090 266.093 C 128.500 265.529,127.663 264.979,127.229 264.870 C 126.795 264.761,126.441 264.536,126.441 264.370 C 126.441 264.204,126.136 264.068,125.763 264.068 C 125.390 264.068,125.085 263.917,125.085 263.733 C 125.085 263.549,124.475 263.300,123.729 263.181 C 122.983 263.062,122.373 262.831,122.373 262.669 C 122.373 262.506,122.066 262.373,121.690 262.373 C 121.315 262.373,120.743 262.241,120.419 262.079 C 118.453 261.099,117.071 260.931,110.169 260.835 C 106.161 260.779,102.119 260.868,101.186 261.032 M115.180 265.371 C 115.252 265.586,115.679 265.763,116.130 265.763 C 116.581 265.763,116.949 265.915,116.949 266.102 C 116.949 266.288,117.254 266.441,117.627 266.441 C 118.000 266.441,118.305 266.577,118.305 266.743 C 118.305 266.909,118.686 267.141,119.153 267.258 C 119.619 267.375,120.000 267.620,120.000 267.803 C 120.000 267.986,120.159 268.136,120.353 268.136 C 120.755 268.136,121.178 268.472,122.970 270.218 C 124.739 271.941,125.763 273.167,125.763 273.562 C 125.763 273.747,125.905 273.898,126.079 273.898 C 126.253 273.898,126.502 274.242,126.633 274.661 C 126.764 275.081,126.973 275.500,127.097 275.593 C 127.412 275.829,128.475 278.157,128.475 278.611 C 128.475 278.815,128.627 278.983,128.814 278.983 C 129.000 278.983,129.153 279.288,129.153 279.661 C 129.153 280.034,129.305 280.339,129.492 280.339 C 129.678 280.339,129.831 280.720,129.831 281.186 C 129.831 281.653,129.975 282.034,130.153 282.034 C 130.330 282.034,130.578 282.949,130.705 284.068 C 130.831 285.186,131.068 286.102,131.230 286.102 C 131.393 286.102,131.525 286.623,131.525 287.260 C 131.525 287.897,131.716 288.482,131.949 288.559 C 132.277 288.668,132.373 291.262,132.373 300.000 C 132.373 308.738,132.277 311.331,131.949 311.441 C 131.708 311.521,131.525 312.145,131.525 312.890 C 131.525 313.609,131.387 314.283,131.218 314.387 C 131.049 314.492,130.806 315.340,130.678 316.272 C 130.550 317.204,130.307 317.966,130.138 317.966 C 129.969 317.966,129.831 318.347,129.831 318.814 C 129.831 319.280,129.678 319.661,129.492 319.661 C 129.305 319.661,129.153 320.042,129.153 320.508 C 129.153 320.975,129.007 321.356,128.829 321.356 C 128.651 321.356,128.405 321.890,128.283 322.542 C 128.160 323.195,127.925 323.729,127.759 323.729 C 127.593 323.729,127.458 323.958,127.458 324.237 C 127.458 324.517,127.315 324.746,127.141 324.746 C 126.968 324.746,126.721 325.076,126.592 325.480 C 126.464 325.883,125.996 326.577,125.553 327.021 C 125.109 327.464,124.746 327.948,124.746 328.096 C 124.746 328.514,122.106 331.186,121.692 331.186 C 121.489 331.186,120.970 331.568,120.538 332.034 C 120.106 332.500,119.503 332.881,119.198 332.881 C 118.894 332.881,118.644 332.997,118.644 333.138 C 118.644 333.501,116.879 334.236,115.449 334.468 C 114.783 334.576,114.237 334.798,114.237 334.960 C 114.237 335.122,113.551 335.254,112.712 335.254 C 111.873 335.254,111.186 335.407,111.186 335.593 C 111.186 335.789,110.113 335.932,108.644 335.932 C 107.175 335.932,106.102 335.789,106.102 335.593 C 106.102 335.407,105.415 335.254,104.576 335.254 C 103.737 335.254,103.051 335.102,103.051 334.915 C 103.051 334.729,102.699 334.576,102.268 334.576 C 101.838 334.576,101.189 334.352,100.828 334.079 C 100.466 333.805,99.903 333.576,99.576 333.570 C 99.250 333.564,98.983 333.407,98.983 333.220 C 98.983 333.034,98.754 332.881,98.475 332.881 C 98.195 332.881,97.966 332.739,97.966 332.565 C 97.966 332.391,97.647 332.148,97.256 332.024 C 96.549 331.799,92.746 328.130,91.959 326.912 C 91.731 326.560,91.281 325.737,90.959 325.085 C 90.638 324.432,90.282 323.822,90.169 323.729 C 89.863 323.475,88.814 321.140,88.814 320.711 C 88.814 320.507,88.661 320.339,88.475 320.339 C 88.288 320.339,88.136 319.967,88.136 319.512 C 88.136 319.056,87.997 318.599,87.828 318.494 C 87.659 318.390,87.416 317.542,87.288 316.610 C 87.160 315.678,86.917 314.915,86.748 314.915 C 86.579 314.915,86.441 314.394,86.441 313.757 C 86.441 313.120,86.292 312.548,86.111 312.486 C 85.929 312.424,85.677 310.422,85.550 308.039 C 85.423 305.655,85.190 303.624,85.032 303.527 C 84.659 303.296,84.658 297.043,85.032 296.812 C 85.189 296.715,85.417 294.685,85.537 292.302 C 85.660 289.892,85.909 287.917,86.099 287.854 C 86.287 287.791,86.441 287.228,86.441 286.602 C 86.441 285.976,86.575 285.380,86.740 285.279 C 86.905 285.177,87.144 284.253,87.273 283.225 C 87.401 282.197,87.611 281.356,87.738 281.356 C 88.051 281.356,88.747 279.740,89.017 278.387 C 89.138 277.783,89.371 277.288,89.534 277.288 C 89.697 277.288,89.831 277.059,89.831 276.780 C 89.831 276.500,89.983 276.271,90.169 276.271 C 90.356 276.271,90.508 275.982,90.508 275.629 C 90.508 275.277,90.737 274.900,91.017 274.793 C 91.297 274.685,91.525 274.348,91.525 274.042 C 91.525 273.737,91.907 273.187,92.373 272.821 C 92.839 272.454,93.220 271.870,93.220 271.524 C 93.220 271.177,93.525 270.796,93.898 270.678 C 94.271 270.560,94.576 270.321,94.576 270.147 C 94.576 269.973,94.752 269.831,94.966 269.831 C 95.180 269.831,95.874 269.297,96.507 268.644 C 97.141 267.992,97.814 267.458,98.002 267.458 C 98.190 267.458,99.027 267.076,99.862 266.610 C 100.697 266.144,101.680 265.763,102.046 265.763 C 102.412 265.763,102.712 265.620,102.712 265.446 C 102.712 264.683,114.926 264.609,115.180 265.371 M166.961 269.473 C 166.839 269.670,166.367 269.831,165.912 269.831 C 165.457 269.831,165.085 269.983,165.085 270.169 C 165.085 270.356,164.616 270.508,164.044 270.508 C 162.533 270.508,162.145 271.102,161.871 273.833 C 161.736 275.174,161.489 276.271,161.322 276.271 C 161.154 276.271,161.017 276.653,161.017 277.119 C 161.017 277.585,160.864 277.966,160.678 277.966 C 160.492 277.966,160.339 278.134,160.339 278.339 C 160.339 279.618,157.279 283.729,156.326 283.729 C 156.140 283.729,155.935 283.889,155.870 284.084 C 155.805 284.280,154.877 284.530,153.808 284.640 L 151.864 284.841 151.864 286.827 L 151.864 288.814 154.915 288.814 L 157.966 288.814 157.966 309.322 C 157.966 322.768,158.083 329.831,158.305 329.831 C 158.492 329.831,158.644 330.517,158.644 331.356 C 158.644 332.195,158.758 332.882,158.898 332.883 C 159.038 332.883,159.432 333.563,159.774 334.394 C 160.115 335.225,160.679 335.995,161.027 336.105 C 161.375 336.215,161.750 336.587,161.859 336.931 C 161.978 337.307,162.515 337.642,163.207 337.772 C 163.840 337.890,164.420 338.173,164.495 338.401 C 164.676 338.940,177.866 338.997,178.233 338.459 C 178.366 338.265,179.070 337.960,179.797 337.781 C 181.559 337.350,181.898 336.736,181.503 334.693 C 181.211 333.179,179.661 331.920,179.661 333.197 C 179.661 333.396,179.394 333.564,179.068 333.570 C 178.742 333.576,178.178 333.805,177.817 334.079 C 176.028 335.431,169.713 334.390,169.282 332.671 C 169.170 332.228,168.943 331.864,168.777 331.864 C 168.611 331.864,168.475 331.111,168.475 330.189 C 168.475 329.268,168.322 328.420,168.136 328.305 C 167.916 328.169,167.797 321.183,167.797 308.455 L 167.797 288.814 174.254 288.814 L 180.712 288.814 180.610 286.864 L 180.508 284.915 174.153 284.823 L 167.797 284.731 167.797 278.976 C 167.797 275.182,167.918 273.220,168.153 273.220 C 168.793 273.220,168.397 269.346,167.743 269.222 C 167.435 269.163,167.082 269.276,166.961 269.473 M201.536 269.474 C 201.415 269.670,200.876 269.831,200.339 269.831 C 199.802 269.831,199.268 269.983,199.153 270.169 C 199.037 270.356,198.560 270.508,198.091 270.508 C 196.904 270.508,196.271 271.266,196.271 272.688 C 196.271 273.354,196.138 273.898,195.976 273.898 C 195.814 273.898,195.577 274.814,195.451 275.932 C 195.324 277.051,195.104 277.966,194.962 277.966 C 194.819 277.966,194.493 278.500,194.237 279.153 C 193.981 279.805,193.648 280.339,193.496 280.339 C 193.344 280.339,193.220 280.555,193.220 280.818 C 193.220 281.452,190.994 283.729,190.373 283.729 C 190.106 283.729,189.832 283.894,189.765 284.096 C 189.697 284.297,188.808 284.564,187.787 284.689 L 185.932 284.915 185.831 286.864 L 185.729 288.814 188.966 288.814 L 192.203 288.814 192.203 308.814 C 192.203 320.225,192.333 328.814,192.504 328.814 C 192.670 328.814,192.867 329.909,192.942 331.248 C 193.027 332.739,193.239 333.735,193.489 333.818 C 193.714 333.893,193.898 334.171,193.898 334.435 C 193.898 335.169,196.473 337.580,197.534 337.840 C 198.051 337.967,198.584 338.238,198.717 338.442 C 199.052 338.957,212.134 338.958,212.470 338.443 C 212.603 338.239,213.216 337.974,213.833 337.854 C 215.544 337.521,217.142 334.237,215.593 334.237 C 215.407 334.237,215.254 333.932,215.254 333.559 C 215.254 333.062,215.028 332.881,214.407 332.881 C 213.941 332.881,213.559 332.998,213.559 333.140 C 213.559 334.398,206.595 335.106,204.778 334.033 C 203.550 333.307,202.712 331.259,202.712 328.981 C 202.712 327.957,202.559 327.119,202.373 327.119 C 202.151 327.119,202.034 320.508,202.034 307.966 L 202.034 288.814 208.305 288.814 L 214.576 288.814 214.576 286.780 L 214.576 284.746 208.305 284.746 L 202.034 284.746 202.034 280.508 C 202.034 277.814,202.162 276.271,202.385 276.271 C 202.892 276.271,202.663 269.417,202.150 269.247 C 201.934 269.175,201.658 269.277,201.536 269.474 M243.729 283.390 C 243.729 283.584,242.712 283.729,241.356 283.729 C 240.051 283.729,238.983 283.860,238.983 284.021 C 238.983 284.181,238.194 284.406,237.229 284.520 C 236.265 284.634,235.319 284.884,235.128 285.076 C 234.936 285.267,234.429 285.424,234.000 285.424 C 233.571 285.424,233.220 285.576,233.220 285.763 C 233.220 285.949,232.992 286.102,232.712 286.102 C 232.432 286.102,232.203 286.244,232.203 286.418 C 232.203 286.592,231.860 286.842,231.441 286.975 C 231.021 287.107,230.431 287.499,230.130 287.845 C 229.828 288.191,229.447 288.477,229.282 288.480 C 228.831 288.488,226.780 290.376,226.780 290.783 C 226.780 290.978,226.589 291.340,226.356 291.586 C 224.986 293.034,223.845 297.918,224.746 298.475 C 224.932 298.590,225.085 298.980,225.085 299.342 C 225.085 299.764,225.317 300.000,225.734 300.000 C 226.092 300.000,226.448 300.191,226.526 300.424 C 226.627 300.727,227.676 300.846,230.217 300.844 C 234.715 300.839,235.593 300.236,235.593 297.154 C 235.593 296.131,235.726 295.212,235.888 295.112 C 236.049 295.012,236.282 294.172,236.405 293.245 C 236.637 291.497,239.039 288.475,240.196 288.475 C 240.461 288.475,240.678 288.322,240.678 288.136 C 240.678 287.949,240.983 287.797,241.356 287.797 C 241.729 287.797,242.034 287.644,242.034 287.458 C 242.034 287.252,243.503 287.119,245.763 287.119 C 247.814 287.119,249.492 287.234,249.492 287.375 C 249.492 287.516,249.987 287.846,250.593 288.109 C 252.676 289.012,254.576 291.713,254.576 293.770 C 254.576 294.214,254.729 294.576,254.915 294.576 C 255.128 294.576,255.254 296.667,255.254 300.169 L 255.254 305.763 254.068 305.763 C 253.415 305.763,252.881 305.893,252.881 306.051 C 252.881 306.210,250.708 306.447,248.051 306.577 C 245.394 306.708,243.169 306.959,243.107 307.136 C 243.045 307.313,242.244 307.458,241.328 307.458 C 240.411 307.458,239.661 307.588,239.661 307.748 C 239.661 307.908,238.555 308.141,237.203 308.266 C 235.852 308.391,234.695 308.642,234.633 308.823 C 234.571 309.004,234.258 309.153,233.938 309.153 C 233.219 309.153,231.532 309.913,231.528 310.239 C 231.527 310.370,230.992 310.578,230.339 310.700 C 229.686 310.823,229.153 311.058,229.153 311.224 C 229.153 311.390,228.924 311.525,228.644 311.525 C 228.364 311.525,228.136 311.668,228.136 311.842 C 228.136 312.015,227.792 312.267,227.373 312.400 C 226.505 312.675,224.510 314.734,224.217 315.656 C 224.110 315.995,223.880 316.271,223.706 316.271 C 223.532 316.271,223.390 316.487,223.390 316.751 C 223.390 317.016,223.227 317.286,223.029 317.352 C 222.831 317.418,222.582 318.117,222.476 318.906 C 222.370 319.694,222.151 320.339,221.989 320.339 C 221.827 320.339,221.695 322.246,221.695 324.576 C 221.695 326.907,221.833 328.814,222.002 328.814 C 222.171 328.814,222.414 329.576,222.542 330.508 C 222.671 331.441,222.914 332.203,223.083 332.203 C 223.252 332.203,223.390 332.439,223.390 332.728 C 223.390 333.017,223.744 333.589,224.178 333.999 C 224.611 334.410,225.065 335.016,225.187 335.347 C 225.309 335.677,225.679 336.048,226.009 336.171 C 226.340 336.293,226.848 336.661,227.139 336.988 C 227.429 337.314,228.116 337.692,228.664 337.826 C 229.212 337.961,229.770 338.238,229.903 338.442 C 230.264 338.997,245.150 338.957,245.335 338.401 C 245.411 338.173,245.996 337.889,246.635 337.770 C 247.274 337.650,247.797 337.416,247.797 337.250 C 247.797 337.085,248.025 336.949,248.305 336.949 C 248.585 336.949,248.814 336.813,248.814 336.647 C 248.814 336.481,249.195 336.249,249.661 336.132 C 250.127 336.015,250.508 335.770,250.508 335.587 C 250.508 335.404,250.710 335.254,250.956 335.254 C 251.202 335.254,251.725 334.911,252.119 334.492 C 253.148 333.395,253.819 332.881,254.223 332.881 C 254.417 332.881,254.576 332.729,254.576 332.542 C 254.576 332.356,254.729 332.203,254.915 332.203 C 255.102 332.203,255.254 332.508,255.254 332.881 C 255.254 333.254,255.385 333.559,255.545 333.559 C 255.705 333.559,255.932 334.484,256.050 335.614 C 256.387 338.832,256.376 338.828,263.369 338.733 C 267.005 338.683,269.364 338.518,269.434 338.309 C 269.497 338.120,270.001 337.966,270.555 337.966 C 271.545 337.966,271.561 337.939,271.459 336.356 L 271.356 334.746 268.741 334.560 C 267.303 334.458,266.082 334.306,266.029 334.221 C 265.320 333.098,265.085 332.302,265.085 331.022 C 265.085 330.180,264.932 329.492,264.746 329.492 C 264.528 329.492,264.407 326.108,264.407 320.020 C 264.407 314.071,264.533 310.471,264.746 310.339 C 264.954 310.210,265.085 307.398,265.085 303.031 C 265.085 298.524,264.961 295.932,264.746 295.932 C 264.559 295.932,264.407 295.169,264.407 294.237 C 264.407 293.305,264.272 292.542,264.106 292.542 C 263.941 292.542,263.703 291.856,263.577 291.017 C 263.451 290.178,263.205 289.492,263.030 289.492 C 262.855 289.492,262.712 289.333,262.712 289.138 C 262.712 288.780,262.220 288.097,261.429 287.357 C 260.303 286.303,260.023 286.102,259.685 286.102 C 259.485 286.102,259.322 285.949,259.322 285.763 C 259.322 285.576,259.030 285.424,258.672 285.424 C 258.315 285.424,257.967 285.256,257.898 285.051 C 257.830 284.847,257.055 284.598,256.175 284.499 C 255.296 284.400,254.576 284.186,254.576 284.024 C 254.576 283.862,253.814 283.729,252.881 283.729 C 251.949 283.729,251.186 283.576,251.186 283.390 C 251.186 283.184,249.718 283.051,247.458 283.051 C 245.198 283.051,243.729 283.184,243.729 283.390 M373.220 283.390 C 373.220 283.584,372.203 283.729,370.847 283.729 C 369.542 283.729,368.475 283.860,368.475 284.021 C 368.475 284.181,367.685 284.406,366.721 284.520 C 365.756 284.634,364.811 284.884,364.619 285.076 C 364.428 285.267,363.920 285.424,363.492 285.424 C 363.063 285.424,362.712 285.576,362.712 285.763 C 362.712 285.949,362.483 286.102,362.203 286.102 C 361.924 286.102,361.695 286.254,361.695 286.441 C 361.695 286.627,361.411 286.780,361.064 286.780 C 360.718 286.780,360.148 287.161,359.798 287.627 C 359.448 288.093,358.947 288.475,358.685 288.475 C 358.078 288.475,356.413 290.205,356.115 291.146 C 355.989 291.541,355.744 291.864,355.570 291.864 C 355.397 291.864,355.254 292.093,355.254 292.373 C 355.254 292.653,355.102 292.881,354.915 292.881 C 354.729 292.881,354.576 293.254,354.576 293.709 C 354.576 294.164,354.424 294.631,354.237 294.746 C 353.777 295.030,353.807 298.074,354.281 299.114 C 355.342 301.442,364.407 301.578,364.407 299.265 C 364.407 298.923,364.559 298.644,364.746 298.644 C 364.934 298.644,365.085 297.740,365.085 296.610 C 365.085 295.492,365.217 294.576,365.378 294.576 C 365.539 294.576,365.767 293.870,365.886 293.006 C 366.007 292.120,366.375 291.197,366.731 290.888 C 367.077 290.586,367.464 290.012,367.590 289.612 C 367.744 289.123,368.205 288.812,368.995 288.664 C 369.641 288.543,370.169 288.298,370.169 288.120 C 370.169 287.942,370.475 287.797,370.847 287.797 C 371.220 287.797,371.525 287.644,371.525 287.458 C 371.525 287.252,372.994 287.119,375.254 287.119 C 377.305 287.119,378.983 287.234,378.983 287.375 C 378.983 287.516,379.479 287.846,380.085 288.109 C 381.488 288.717,382.969 290.232,383.248 291.346 C 383.367 291.821,383.601 292.294,383.766 292.396 C 383.932 292.499,384.068 293.184,384.068 293.918 C 384.068 294.653,384.220 295.254,384.407 295.254 C 384.618 295.254,384.746 297.232,384.746 300.508 L 384.746 305.763 383.559 305.763 C 382.907 305.763,382.373 305.893,382.373 306.053 C 382.373 306.212,380.123 306.451,377.373 306.583 C 374.623 306.715,372.228 306.966,372.051 307.141 C 371.874 307.315,371.149 307.458,370.441 307.458 C 369.732 307.458,369.153 307.588,369.153 307.748 C 369.153 307.908,368.050 308.141,366.702 308.266 C 365.355 308.391,364.104 308.642,363.923 308.823 C 363.741 309.004,363.242 309.153,362.814 309.153 C 362.385 309.153,362.034 309.305,362.034 309.492 C 362.034 309.678,361.805 309.831,361.525 309.831 C 361.246 309.831,361.017 309.983,361.017 310.169 C 361.017 310.356,360.646 310.508,360.194 310.508 C 359.741 310.508,359.142 310.737,358.862 311.017 C 358.582 311.297,358.190 311.525,357.990 311.525 C 357.791 311.525,357.627 311.668,357.627 311.842 C 357.627 312.015,357.307 312.259,356.915 312.384 C 355.929 312.697,353.559 315.055,353.559 315.723 C 353.559 316.025,353.407 316.271,353.220 316.271 C 353.034 316.271,352.881 316.487,352.881 316.751 C 352.881 317.016,352.719 317.286,352.521 317.352 C 352.322 317.418,352.073 318.117,351.967 318.906 C 351.862 319.694,351.643 320.339,351.481 320.339 C 351.319 320.339,351.186 322.398,351.186 324.915 C 351.186 327.432,351.319 329.492,351.482 329.492 C 351.645 329.492,351.875 330.102,351.995 330.847 C 352.114 331.593,352.362 332.203,352.546 332.203 C 352.731 332.203,352.881 332.432,352.881 332.712 C 352.881 332.992,353.106 333.487,353.382 333.814 C 355.064 335.809,356.220 336.949,356.560 336.949 C 356.774 336.949,356.949 337.090,356.949 337.261 C 356.949 337.433,357.445 337.681,358.051 337.812 C 358.657 337.944,359.261 338.223,359.394 338.432 C 359.734 338.967,373.826 338.966,374.165 338.431 C 374.298 338.221,375.055 337.941,375.847 337.808 C 376.640 337.676,377.288 337.428,377.288 337.258 C 377.288 337.088,377.517 336.949,377.797 336.949 C 378.076 336.949,378.305 336.807,378.305 336.633 C 378.305 336.459,378.648 336.209,379.068 336.076 C 379.487 335.944,380.077 335.552,380.379 335.206 C 380.680 334.860,381.100 334.576,381.311 334.576 C 381.522 334.576,381.695 334.434,381.695 334.260 C 381.695 334.086,381.992 333.850,382.356 333.734 C 382.719 333.619,383.111 333.227,383.226 332.864 C 383.545 331.858,384.746 332.006,384.746 333.051 C 384.746 333.517,384.879 333.898,385.043 333.898 C 385.206 333.898,385.408 334.721,385.491 335.727 C 385.744 338.776,385.877 338.830,392.862 338.720 C 396.328 338.665,398.861 338.488,398.927 338.296 C 398.989 338.115,399.256 337.966,399.520 337.966 C 399.870 337.966,400.000 337.507,400.000 336.271 L 400.000 334.576 398.390 334.572 C 395.385 334.563,394.576 333.878,394.576 331.340 C 394.576 330.696,394.424 330.169,394.237 330.169 C 394.018 330.169,393.898 325.995,393.898 318.325 C 393.898 310.794,394.022 306.404,394.237 306.271 C 394.437 306.148,394.576 304.121,394.576 301.336 C 394.576 298.411,394.447 296.610,394.237 296.610 C 394.051 296.610,393.898 295.771,393.898 294.746 C 393.898 293.720,393.765 292.881,393.603 292.881 C 393.441 292.881,393.211 292.152,393.093 291.260 C 392.953 290.207,392.641 289.468,392.201 289.151 C 391.830 288.883,391.525 288.494,391.525 288.286 C 391.525 287.836,389.644 286.102,389.155 286.102 C 388.967 286.102,388.814 285.949,388.814 285.763 C 388.814 285.576,388.521 285.424,388.164 285.424 C 387.806 285.424,387.458 285.256,387.390 285.051 C 387.322 284.847,386.546 284.598,385.667 284.499 C 384.787 284.400,384.068 284.186,384.068 284.024 C 384.068 283.862,383.314 283.729,382.393 283.729 C 381.472 283.729,380.624 283.576,380.508 283.390 C 380.390 283.199,378.754 283.051,376.760 283.051 C 374.626 283.051,373.220 283.185,373.220 283.390 M10.847 284.068 C 10.847 284.274,9.338 284.407,6.996 284.407 C 4.878 284.407,2.438 284.504,1.573 284.622 L -0.000 284.838 -0.000 286.656 L 0.000 288.475 2.119 288.480 C 5.256 288.487,6.102 289.577,6.102 293.611 C 6.102 294.888,6.244 295.932,6.418 295.932 C 6.608 295.932,6.777 302.604,6.842 312.627 C 6.920 324.765,7.059 329.507,7.353 330.000 C 7.575 330.373,8.024 331.326,8.350 332.119 C 8.677 332.911,9.067 333.559,9.218 333.559 C 9.368 333.559,9.492 333.718,9.492 333.912 C 9.492 334.380,12.050 336.949,12.516 336.949 C 12.717 336.949,12.881 337.085,12.881 337.250 C 12.881 337.416,13.404 337.650,14.043 337.770 C 14.682 337.889,15.267 338.173,15.343 338.401 C 15.445 338.708,17.293 338.814,22.543 338.814 C 27.793 338.814,29.640 338.708,29.742 338.401 C 29.818 338.173,30.403 337.889,31.042 337.770 C 31.681 337.650,32.203 337.416,32.203 337.250 C 32.203 337.085,32.432 336.949,32.712 336.949 C 32.992 336.949,33.220 336.797,33.220 336.610 C 33.220 336.424,33.444 336.271,33.718 336.271 C 33.991 336.271,34.726 335.775,35.350 335.169 C 35.975 334.564,36.771 333.905,37.119 333.706 C 37.467 333.507,37.914 333.059,38.113 332.709 C 38.537 331.964,39.887 330.508,40.154 330.508 C 40.256 330.508,40.341 332.072,40.344 333.983 C 40.351 339.393,39.514 338.870,47.903 338.705 C 51.853 338.628,55.136 338.430,55.198 338.265 C 55.260 338.101,55.679 337.966,56.130 337.966 C 56.884 337.966,56.949 337.835,56.949 336.309 L 56.949 334.653 54.629 334.522 C 52.247 334.387,51.186 333.837,51.186 332.736 C 51.186 332.443,51.034 332.203,50.847 332.203 C 50.661 332.203,50.508 331.822,50.508 331.356 C 50.508 330.890,50.356 330.508,50.169 330.508 C 49.947 330.508,49.831 323.001,49.831 308.664 C 49.831 294.467,49.949 286.746,50.169 286.610 C 50.356 286.495,50.508 285.799,50.508 285.065 L 50.508 283.729 47.627 283.729 C 45.932 283.729,44.746 283.868,44.746 284.068 C 44.746 284.274,43.190 284.408,40.763 284.410 C 38.572 284.411,35.979 284.509,35.000 284.626 L 33.220 284.840 33.220 286.619 L 33.220 288.398 35.531 288.529 C 38.258 288.683,39.661 289.696,39.661 291.510 C 39.661 292.078,39.814 292.542,40.000 292.542 C 40.220 292.542,40.339 297.062,40.339 305.424 C 40.339 313.785,40.220 318.305,40.000 318.305 C 39.814 318.305,39.661 319.144,39.661 320.169 C 39.661 321.195,39.508 322.034,39.322 322.034 C 39.136 322.034,38.983 322.415,38.983 322.881 C 38.983 323.347,38.837 323.729,38.659 323.729 C 38.481 323.729,38.236 324.263,38.113 324.915 C 37.991 325.568,37.755 326.102,37.589 326.102 C 37.424 326.102,37.288 326.331,37.288 326.610 C 37.288 326.890,37.136 327.119,36.949 327.119 C 36.763 327.119,36.610 327.346,36.610 327.625 C 36.610 328.288,32.020 332.881,31.358 332.881 C 31.077 332.881,30.847 332.997,30.847 333.138 C 30.847 333.869,28.461 334.407,25.213 334.407 L 21.782 334.407 20.237 333.051 C 19.386 332.305,18.587 331.352,18.461 330.932 C 18.335 330.513,18.096 330.169,17.929 330.169 C 17.763 330.169,17.627 329.819,17.627 329.390 C 17.627 328.961,17.456 328.439,17.247 328.230 C 17.038 328.021,16.788 326.461,16.691 324.763 C 16.594 323.065,16.384 321.595,16.224 321.496 C 15.801 321.235,15.848 294.329,16.271 294.068 C 16.473 293.943,16.610 291.804,16.610 288.794 L 16.610 283.729 13.729 283.729 C 12.034 283.729,10.847 283.868,10.847 284.068 M269.652 285.453 C 269.027 287.420,269.704 288.384,271.818 288.537 C 273.888 288.687,276.610 290.658,276.610 292.007 C 276.610 292.302,276.748 292.542,276.917 292.542 C 277.086 292.542,277.329 293.305,277.458 294.237 C 277.586 295.169,277.829 295.932,277.998 295.932 C 278.167 295.932,278.305 296.314,278.305 296.780 C 278.305 297.246,278.436 297.627,278.597 297.627 C 278.757 297.627,278.982 298.416,279.096 299.381 C 279.211 300.345,279.461 301.291,279.652 301.483 C 279.843 301.674,280.000 302.181,280.000 302.610 C 280.000 303.039,280.153 303.390,280.339 303.390 C 280.525 303.390,280.678 303.924,280.678 304.576 C 280.678 305.229,280.816 305.763,280.985 305.763 C 281.154 305.763,281.397 306.525,281.525 307.458 C 281.654 308.390,281.897 309.153,282.066 309.153 C 282.235 309.153,282.373 309.686,282.373 310.339 C 282.373 310.992,282.511 311.525,282.680 311.525 C 282.849 311.525,283.092 312.288,283.220 313.220 C 283.349 314.153,283.592 314.915,283.761 314.915 C 283.930 314.915,284.068 315.449,284.068 316.102 C 284.068 316.754,284.220 317.288,284.407 317.288 C 284.593 317.288,284.746 317.669,284.746 318.136 C 284.746 318.602,284.891 318.983,285.068 318.983 C 285.245 318.983,285.494 319.898,285.620 321.017 C 285.747 322.136,285.983 323.051,286.145 323.051 C 286.308 323.051,286.441 323.432,286.441 323.898 C 286.441 324.364,286.586 324.746,286.763 324.746 C 286.940 324.746,287.189 325.661,287.315 326.780 C 287.442 327.898,287.678 328.814,287.840 328.814 C 288.003 328.814,288.136 329.195,288.136 329.661 C 288.136 330.127,288.267 330.508,288.427 330.508 C 288.588 330.508,288.813 331.298,288.927 332.262 C 289.041 333.227,289.291 334.172,289.483 334.364 C 289.674 334.555,289.831 335.063,289.831 335.492 C 289.831 335.920,289.983 336.271,290.169 336.271 C 290.356 336.271,290.508 336.805,290.508 337.458 L 290.508 338.644 293.898 338.644 C 296.685 338.644,297.288 338.554,297.288 338.136 C 297.288 337.856,297.441 337.627,297.627 337.627 C 297.814 337.627,297.966 337.246,297.966 336.780 C 297.966 336.314,298.101 335.932,298.266 335.932 C 298.431 335.932,298.671 335.093,298.799 334.068 C 298.927 333.042,299.173 332.203,299.346 332.203 C 299.519 332.203,299.661 331.822,299.661 331.356 C 299.661 330.890,299.814 330.508,300.000 330.508 C 300.186 330.508,300.339 330.127,300.339 329.661 C 300.339 329.195,300.477 328.814,300.646 328.814 C 300.815 328.814,301.058 328.051,301.186 327.119 C 301.315 326.186,301.558 325.424,301.727 325.424 C 301.896 325.424,302.034 325.042,302.034 324.576 C 302.034 324.110,302.172 323.729,302.341 323.729 C 302.510 323.729,302.753 322.966,302.881 322.034 C 303.010 321.102,303.253 320.339,303.422 320.339 C 303.591 320.339,303.729 319.881,303.729 319.322 C 303.729 318.763,303.867 318.305,304.036 318.305 C 304.205 318.305,304.448 317.542,304.576 316.610 C 304.704 315.678,304.948 314.915,305.117 314.915 C 305.286 314.915,305.424 314.534,305.424 314.068 C 305.424 313.602,305.576 313.220,305.763 313.220 C 305.949 313.220,306.102 312.839,306.102 312.373 C 306.102 311.907,306.240 311.525,306.409 311.525 C 306.578 311.525,306.821 310.763,306.949 309.831 C 307.077 308.898,307.320 308.136,307.489 308.136 C 307.658 308.136,307.797 307.763,307.797 307.308 C 307.797 306.853,307.935 306.395,308.104 306.291 C 308.273 306.186,308.516 305.338,308.644 304.406 C 308.772 303.474,309.015 302.712,309.184 302.712 C 309.353 302.712,309.492 302.331,309.492 301.864 C 309.492 300.006,310.579 301.622,311.034 304.156 C 311.160 304.857,311.399 305.515,311.564 305.617 C 311.729 305.719,311.864 306.175,311.864 306.630 C 311.864 307.085,312.003 307.458,312.172 307.458 C 312.341 307.458,312.584 308.220,312.712 309.153 C 312.840 310.085,313.083 310.847,313.252 310.847 C 313.421 310.847,313.559 311.229,313.559 311.695 C 313.559 312.161,313.682 312.542,313.831 312.542 C 314.072 312.542,314.550 314.186,315.139 317.034 C 315.245 317.547,315.466 317.966,315.632 317.966 C 315.797 317.966,315.932 318.347,315.932 318.814 C 315.932 319.280,316.070 319.661,316.239 319.661 C 316.408 319.661,316.651 320.424,316.780 321.356 C 316.908 322.288,317.151 323.051,317.320 323.051 C 317.489 323.051,317.627 323.585,317.627 324.237 C 317.627 324.890,317.762 325.424,317.928 325.424 C 318.093 325.424,318.331 326.107,318.456 326.941 C 318.581 327.776,318.827 328.548,319.003 328.656 C 319.178 328.765,319.322 329.226,319.322 329.681 C 319.322 330.136,319.475 330.508,319.661 330.508 C 319.847 330.508,320.000 330.890,320.000 331.356 C 320.000 331.822,320.138 332.203,320.307 332.203 C 320.476 332.203,320.719 332.966,320.847 333.898 C 320.976 334.830,321.219 335.678,321.388 335.782 C 321.557 335.887,321.695 336.345,321.695 336.800 C 321.695 337.255,321.847 337.627,322.034 337.627 C 322.220 337.627,322.373 337.856,322.373 338.136 C 322.373 338.554,322.976 338.644,325.763 338.644 L 329.153 338.644 329.153 337.458 C 329.153 336.805,329.305 336.271,329.492 336.271 C 329.678 336.271,329.831 335.890,329.831 335.424 C 329.831 334.958,329.969 334.576,330.138 334.576 C 330.307 334.576,330.550 333.814,330.678 332.881 C 330.806 331.949,331.049 331.186,331.218 331.186 C 331.387 331.186,331.525 330.653,331.525 330.000 C 331.525 329.347,331.664 328.814,331.833 328.814 C 332.002 328.814,332.245 328.051,332.373 327.119 C 332.501 326.186,332.744 325.424,332.913 325.424 C 333.082 325.424,333.220 325.042,333.220 324.576 C 333.220 324.110,333.365 323.729,333.542 323.729 C 333.720 323.729,333.968 322.814,334.095 321.695 C 334.221 320.576,334.458 319.661,334.620 319.661 C 334.782 319.661,334.915 319.280,334.915 318.814 C 334.915 318.347,335.068 317.966,335.254 317.966 C 335.441 317.966,335.593 317.594,335.593 317.139 C 335.593 316.684,335.731 316.226,335.900 316.121 C 336.069 316.017,336.313 315.169,336.441 314.237 C 336.569 313.305,336.812 312.542,336.981 312.542 C 337.150 312.542,337.288 312.094,337.288 311.545 C 337.288 310.997,337.426 310.463,337.595 310.359 C 337.764 310.254,338.007 309.406,338.136 308.474 C 338.264 307.542,338.507 306.780,338.676 306.780 C 338.845 306.780,338.983 306.398,338.983 305.932 C 338.983 305.466,339.118 305.085,339.284 305.085 C 339.449 305.085,339.671 304.665,339.777 304.153 C 340.620 300.087,340.825 299.322,341.074 299.322 C 341.229 299.322,341.356 298.941,341.356 298.475 C 341.356 298.008,341.491 297.627,341.656 297.627 C 341.822 297.627,342.060 296.941,342.186 296.102 C 342.311 295.263,342.558 294.576,342.733 294.576 C 342.908 294.576,343.051 294.211,343.051 293.765 C 343.051 293.319,343.280 292.866,343.559 292.759 C 343.839 292.651,344.068 292.328,344.068 292.040 C 344.068 291.454,346.051 289.517,346.667 289.501 C 346.884 289.496,347.120 289.319,347.190 289.107 C 347.261 288.896,348.303 288.629,349.507 288.514 L 351.695 288.305 351.695 286.610 L 351.695 284.915 340.763 284.826 L 329.831 284.736 329.831 286.557 L 329.831 288.378 332.555 288.564 C 336.414 288.829,337.468 289.979,337.289 293.729 C 337.253 294.474,337.107 295.161,336.963 295.254 C 336.819 295.347,336.594 296.301,336.462 297.373 C 336.330 298.445,336.081 299.322,335.908 299.322 C 335.735 299.322,335.593 299.694,335.593 300.149 C 335.593 300.605,335.441 301.071,335.254 301.186 C 335.068 301.302,334.915 301.845,334.915 302.393 C 334.915 302.941,334.777 303.390,334.608 303.390 C 334.439 303.390,334.196 304.152,334.068 305.084 C 333.940 306.016,333.697 306.864,333.528 306.969 C 333.359 307.073,333.220 307.607,333.220 308.156 C 333.220 308.704,333.075 309.153,332.898 309.153 C 332.721 309.153,332.472 310.068,332.346 311.186 C 332.219 312.305,331.983 313.220,331.821 313.220 C 331.658 313.220,331.525 313.602,331.525 314.068 C 331.525 314.534,331.380 314.915,331.203 314.915 C 331.026 314.915,330.778 315.831,330.651 316.949 C 330.524 318.068,330.288 318.983,330.126 318.983 C 329.963 318.983,329.831 319.364,329.831 319.831 C 329.831 320.297,329.678 320.678,329.492 320.678 C 329.305 320.678,329.153 321.050,329.153 321.505 C 329.153 321.961,329.000 322.427,328.814 322.542 C 328.627 322.658,328.475 323.112,328.475 323.552 C 328.475 324.571,328.149 325.424,327.760 325.424 C 327.594 325.424,327.458 325.042,327.458 324.576 C 327.458 324.110,327.319 323.729,327.150 323.729 C 326.982 323.729,326.738 322.966,326.610 322.034 C 326.482 321.102,326.239 320.339,326.070 320.339 C 325.901 320.339,325.763 319.881,325.763 319.322 C 325.763 318.763,325.610 318.305,325.424 318.305 C 325.237 318.305,325.085 317.924,325.085 317.458 C 325.085 316.992,324.950 316.610,324.785 316.610 C 324.620 316.610,324.380 315.774,324.253 314.751 C 324.125 313.729,323.878 312.804,323.705 312.697 C 323.532 312.590,323.390 312.130,323.390 311.675 C 323.390 311.220,323.252 310.847,323.083 310.847 C 322.914 310.847,322.671 310.085,322.542 309.153 C 322.414 308.220,322.171 307.458,322.002 307.458 C 321.833 307.458,321.695 307.076,321.695 306.610 C 321.695 306.144,321.564 305.763,321.403 305.763 C 321.243 305.763,321.018 304.974,320.904 304.009 C 320.789 303.044,320.539 302.099,320.348 301.907 C 320.157 301.716,320.000 301.208,320.000 300.780 C 320.000 300.351,319.847 300.000,319.661 300.000 C 319.475 300.000,319.322 299.619,319.322 299.153 C 319.322 298.686,319.177 298.305,319.000 298.305 C 318.823 298.305,318.574 297.390,318.448 296.271 C 318.321 295.153,318.085 294.237,317.922 294.237 C 317.760 294.237,317.627 293.856,317.627 293.390 C 317.627 292.924,317.489 292.542,317.320 292.542 C 317.151 292.542,316.908 291.780,316.780 290.848 C 316.652 289.916,316.408 289.068,316.239 288.963 C 316.070 288.859,315.932 288.401,315.932 287.946 C 315.932 287.491,315.780 287.119,315.593 287.119 C 315.407 287.119,315.254 286.890,315.254 286.610 C 315.254 286.206,314.762 286.102,312.857 286.102 C 310.293 286.102,309.492 286.499,309.492 287.772 C 309.492 288.159,309.353 288.475,309.184 288.475 C 309.015 288.475,308.772 289.237,308.644 290.169 C 308.516 291.102,308.273 291.864,308.104 291.864 C 307.935 291.864,307.797 292.246,307.797 292.712 C 307.797 293.178,307.658 293.559,307.489 293.559 C 307.320 293.559,307.077 294.322,306.949 295.254 C 306.821 296.186,306.578 296.949,306.409 296.949 C 306.240 296.949,306.102 297.331,306.102 297.797 C 306.102 298.263,305.969 298.644,305.806 298.644 C 305.644 298.644,305.411 299.401,305.288 300.325 C 305.165 301.250,304.917 302.098,304.736 302.209 C 304.555 302.321,304.407 302.785,304.407 303.240 C 304.407 303.695,304.254 304.068,304.068 304.068 C 303.881 304.068,303.729 304.449,303.729 304.915 C 303.729 305.381,303.591 305.763,303.422 305.763 C 303.253 305.763,303.010 306.525,302.881 307.458 C 302.753 308.390,302.510 309.153,302.341 309.153 C 302.172 309.153,302.034 309.503,302.034 309.932 C 302.034 310.361,301.877 310.868,301.686 311.060 C 301.495 311.251,301.244 312.197,301.130 313.162 C 301.016 314.126,300.791 314.915,300.631 314.915 C 300.470 314.915,300.339 315.297,300.339 315.763 C 300.339 316.229,300.186 316.610,300.000 316.610 C 299.814 316.610,299.661 316.983,299.661 317.438 C 299.661 317.893,299.523 318.351,299.354 318.455 C 299.185 318.559,298.942 319.407,298.814 320.339 C 298.685 321.271,298.442 322.034,298.273 322.034 C 298.104 322.034,297.966 322.415,297.966 322.881 C 297.966 323.347,297.814 323.729,297.627 323.729 C 297.441 323.729,297.288 324.129,297.288 324.618 C 297.288 325.370,297.210 325.442,296.780 325.085 C 296.500 324.853,296.271 324.300,296.271 323.857 C 296.271 323.414,296.140 323.051,295.979 323.051 C 295.819 323.051,295.594 322.262,295.480 321.297 C 295.366 320.333,295.116 319.387,294.924 319.195 C 294.733 319.004,294.576 318.497,294.576 318.068 C 294.576 317.639,294.424 317.288,294.237 317.288 C 294.051 317.288,293.898 316.754,293.898 316.102 C 293.898 315.449,293.757 314.915,293.584 314.915 C 293.411 314.915,293.164 314.074,293.036 313.046 C 292.907 312.018,292.667 311.094,292.503 310.992 C 292.338 310.891,292.203 310.435,292.203 309.980 C 292.203 309.525,292.071 309.153,291.908 309.153 C 291.746 309.153,291.509 308.237,291.383 307.119 C 291.256 306.000,291.008 305.085,290.831 305.085 C 290.653 305.085,290.508 304.551,290.508 303.898 C 290.508 303.246,290.356 302.712,290.169 302.712 C 289.983 302.712,289.831 302.331,289.831 301.864 C 289.831 301.398,289.698 301.017,289.535 301.017 C 289.373 301.017,289.137 300.102,289.010 298.983 C 288.883 297.864,288.635 296.949,288.458 296.949 C 288.281 296.949,288.136 296.522,288.136 296.000 C 288.136 295.478,287.999 294.906,287.831 294.729 C 287.664 294.552,287.424 293.633,287.299 292.688 C 286.953 290.071,288.199 288.854,291.509 288.577 L 293.898 288.376 293.898 286.561 L 293.898 284.746 281.887 284.746 C 270.007 284.746,269.874 284.753,269.652 285.453 M255.254 315.085 C 255.254 318.362,255.127 320.339,254.915 320.339 C 254.729 320.339,254.576 321.102,254.576 322.034 C 254.576 322.966,254.443 323.729,254.281 323.729 C 254.118 323.729,253.887 324.339,253.768 325.085 C 253.649 325.831,253.401 326.441,253.216 326.441 C 253.032 326.441,252.881 326.746,252.881 327.119 C 252.881 327.492,252.739 327.797,252.565 327.797 C 252.391 327.797,252.145 328.124,252.018 328.524 C 251.724 329.452,249.960 331.186,249.310 331.186 C 249.037 331.186,248.814 331.304,248.814 331.448 C 248.814 331.592,248.280 331.998,247.627 332.349 C 246.975 332.701,246.441 333.117,246.441 333.274 C 246.441 333.431,246.090 333.559,245.661 333.559 C 245.232 333.559,244.691 333.750,244.458 333.983 C 244.177 334.265,242.917 334.407,240.706 334.407 L 237.378 334.407 235.831 333.051 C 234.980 332.305,234.181 331.352,234.054 330.932 C 233.928 330.513,233.689 330.169,233.523 330.169 C 233.356 330.169,233.220 329.877,233.220 329.520 C 233.220 329.162,233.030 328.806,232.797 328.728 C 232.199 328.529,232.208 319.942,232.805 319.743 C 233.034 319.667,233.220 319.312,233.220 318.955 C 233.220 318.597,233.373 318.305,233.559 318.305 C 233.746 318.305,233.898 318.098,233.898 317.845 C 233.898 317.246,237.246 313.898,237.845 313.898 C 238.098 313.898,238.305 313.746,238.305 313.559 C 238.305 313.373,238.610 313.220,238.983 313.220 C 239.356 313.220,239.661 313.075,239.661 312.897 C 239.661 312.719,240.195 312.473,240.847 312.351 C 241.500 312.228,242.034 311.992,242.034 311.827 C 242.034 311.661,242.492 311.525,243.051 311.525 C 243.610 311.525,244.068 311.386,244.068 311.215 C 244.068 311.045,245.250 310.809,246.695 310.692 C 248.140 310.574,249.551 310.341,249.831 310.174 C 250.110 310.007,251.445 309.861,252.797 309.850 L 255.254 309.831 255.254 315.085 M384.746 314.746 C 384.746 317.797,384.617 319.661,384.407 319.661 C 384.220 319.661,384.068 320.424,384.068 321.356 C 384.068 322.288,383.930 323.051,383.761 323.051 C 383.592 323.051,383.349 323.814,383.220 324.746 C 383.092 325.678,382.849 326.441,382.680 326.441 C 382.511 326.441,382.373 326.677,382.373 326.965 C 382.373 327.254,381.992 327.843,381.525 328.275 C 381.059 328.707,380.678 329.300,380.678 329.592 C 380.678 329.885,380.373 330.221,380.000 330.339 C 379.627 330.457,379.322 330.696,379.322 330.870 C 379.322 331.044,379.093 331.186,378.814 331.186 C 378.534 331.186,378.305 331.314,378.305 331.471 C 378.305 331.627,377.697 332.047,376.953 332.403 C 376.209 332.759,375.599 333.165,375.597 333.305 C 375.595 333.445,375.319 333.559,374.983 333.559 C 374.647 333.559,374.193 333.739,373.974 333.959 C 372.818 335.114,365.424 334.442,365.424 333.182 C 365.424 333.017,365.260 332.881,365.061 332.881 C 364.544 332.881,363.858 332.128,363.581 331.255 C 363.451 330.845,363.202 330.508,363.028 330.508 C 362.854 330.508,362.712 330.292,362.712 330.028 C 362.712 329.764,362.523 329.485,362.291 329.408 C 361.688 329.207,361.685 319.948,362.288 319.746 C 362.521 319.668,362.712 319.312,362.712 318.955 C 362.712 318.597,362.848 318.305,363.014 318.305 C 363.180 318.305,363.415 317.911,363.536 317.428 C 363.740 316.618,365.133 314.915,365.592 314.915 C 365.783 314.915,366.258 314.557,367.276 313.644 C 367.536 313.411,367.912 313.220,368.111 313.220 C 368.311 313.220,368.475 313.068,368.475 312.881 C 368.475 312.695,368.818 312.541,369.237 312.540 C 369.657 312.539,370.437 312.310,370.971 312.032 C 371.505 311.753,372.230 311.525,372.581 311.525 C 372.933 311.525,373.220 311.384,373.220 311.212 C 373.220 311.039,374.593 310.791,376.271 310.660 C 377.949 310.528,379.322 310.288,379.322 310.126 C 379.322 309.963,380.542 309.831,382.034 309.831 L 384.746 309.831 384.746 314.746 " stroke="none" fill="#040404" fill-rule="evenodd"></path><path id="path1" d="" stroke="none" fill="#080404" fill-rule="evenodd"></path><path id="path2" d="" stroke="none" fill="#080404" fill-rule="evenodd"></path><path id="path3" d="" stroke="none" fill="#080404" fill-rule="evenodd"></path><path id="path4" d="" stroke="none" fill="#080404" fill-rule="evenodd"></path></g></svg>