<svg id="svg" version="1.1" xmlns="http://www.w3.org/2000/svg" xmlns:xlink="http://www.w3.org/1999/xlink" width="400" height="629.0322580645162" viewBox="0, 0, 400,629.0322580645162"><g id="svgg"><path id="path0" d="M193.414 0.377 C 180.507 2.832,170.492 11.695,166.144 24.511 L 165.396 26.715 163.545 27.084 C 152.649 29.256,140.687 37.639,136.175 46.265 L 135.387 47.771 130.933 47.932 C 87.965 49.489,49.278 80.342,26.081 131.548 C 11.388 163.984,3.349 200.377,0.479 247.446 C 0.008 255.162,0.010 290.272,0.482 298.118 C 10.303 461.565,86.942 593.509,186.832 618.946 L 190.734 619.940 192.074 621.844 C 195.035 626.052,198.320 629.032,200.000 629.032 C 201.680 629.032,204.965 626.052,207.926 621.844 L 209.266 619.940 213.168 618.946 C 312.885 593.553,389.390 462.145,399.482 298.925 C 401.240 270.505,399.304 230.365,394.868 203.226 C 379.694 110.400,330.905 50.173,269.067 47.932 L 264.613 47.771 263.825 46.265 C 259.317 37.647,247.350 29.256,236.476 27.088 L 234.646 26.723 233.864 24.488 C 229.720 12.648,220.697 3.950,209.535 1.034 C 205.708 0.034,197.067 -0.318,193.414 0.377 M203.898 6.461 C 214.646 7.678,223.541 14.144,227.336 23.500 C 228.448 26.243,228.446 26.344,227.274 26.344 C 218.823 26.344,207.372 33.371,201.844 41.949 C 199.786 45.142,200.216 45.145,198.143 41.928 C 192.648 33.404,181.135 26.344,172.726 26.344 C 171.592 26.344,171.588 26.312,172.445 24.037 C 176.965 12.028,189.787 4.864,203.898 6.461 M175.612 32.811 C 186.460 35.021,194.523 41.758,197.754 51.310 C 199.593 56.746,200.407 56.746,202.246 51.310 C 209.813 28.941,241.950 25.495,255.178 45.636 C 257.240 48.775,257.224 48.571,255.443 48.924 C 248.272 50.345,240.309 53.052,235.575 55.678 C 222.421 62.973,210.694 79.996,207.170 96.909 C 200.276 130.003,216.316 148.980,251.747 149.646 C 260.221 149.805,266.122 149.351,267.996 148.395 C 279.220 142.669,281.915 110.717,272.335 96.956 C 265.640 87.339,253.703 92.817,251.479 106.527 C 248.979 121.942,258.713 140.773,265.369 133.397 C 270.373 127.851,271.127 112.517,266.535 109.679 C 263.048 107.524,261.008 109.731,262.851 113.664 C 265.999 120.382,264.449 127.437,260.410 124.774 C 254.329 120.764,255.454 102.390,261.962 99.426 C 271.579 95.046,277.580 122.372,269.988 135.971 C 260.993 152.084,241.964 131.825,244.083 108.389 C 245.640 91.160,255.710 80.698,269.892 81.577 C 291.797 82.934,310.529 93.156,326.825 112.642 C 330.646 117.211,330.553 116.720,328.419 121.045 C 320.779 136.534,302.658 153.963,280.183 167.439 C 275.490 170.253,276.131 170.146,272.420 168.742 C 252.644 161.258,236.647 161.127,207.038 168.206 C 200.970 169.657,198.938 169.623,191.801 167.949 C 162.582 161.096,147.286 161.285,127.580 168.742 C 123.869 170.146,124.510 170.253,119.817 167.439 C 97.194 153.874,78.860 136.151,71.327 120.566 C 69.546 116.881,69.522 117.198,71.798 114.348 C 88.119 93.919,107.597 82.972,130.108 81.577 C 144.283 80.699,154.360 91.161,155.916 108.371 C 158.024 131.695,139.408 151.782,130.135 136.190 C 122.347 123.095,128.380 95.028,138.038 99.426 C 144.554 102.394,145.673 120.762,139.583 124.778 C 135.550 127.437,134.004 120.375,137.149 113.664 C 138.992 109.731,136.952 107.524,133.465 109.679 C 127.142 113.587,131.472 136.483,138.267 135.070 C 146.188 133.421,151.562 114.220,147.465 102.202 C 144.819 94.440,137.782 90.205,132.142 92.981 C 118.505 99.695,118.401 141.455,132.004 148.395 C 134.833 149.838,150.945 150.180,158.803 148.963 C 182.452 145.302,194.169 132.700,194.205 110.887 C 194.234 92.812,187.374 76.312,174.475 63.434 C 167.059 56.029,159.119 52.095,145.706 49.179 C 144.305 48.874,143.123 48.589,143.079 48.545 C 143.035 48.501,143.715 47.374,144.590 46.040 C 151.470 35.563,163.643 30.372,175.612 32.811 M143.883 54.992 C 169.015 58.096,186.519 78.619,188.576 107.392 C 189.818 124.773,177.953 138.487,158.228 142.469 C 151.799 143.767,149.822 143.294,151.669 140.901 C 156.965 134.037,159.309 129.058,160.743 121.627 C 165.257 98.238,153.617 77.763,134.704 75.822 C 113.880 73.685,87.966 86.233,70.521 106.901 C -6.093 197.666,16.374 429.399,112.430 539.149 C 131.797 561.277,157.106 579.646,178.530 587.123 L 180.288 587.736 180.599 592.054 C 181.036 598.132,182.343 603.660,184.442 608.309 C 185.379 610.384,185.404 610.348,183.383 609.825 C 152.530 601.830,118.147 577.709,91.785 545.565 C -7.334 424.707,-24.615 182.259,59.326 90.188 C 82.611 64.648,114.521 51.365,143.883 54.992 M269.000 54.574 C 311.253 56.625,347.217 85.562,369.222 135.215 C 383.357 167.107,391.014 203.144,393.868 251.210 C 394.312 258.679,394.312 287.183,393.869 295.161 C 385.672 442.649,322.676 564.969,235.349 602.957 C 229.530 605.489,218.308 609.548,215.645 610.085 L 214.757 610.264 215.210 609.231 C 217.565 603.858,218.972 598.104,219.446 591.913 L 219.758 587.832 224.059 586.111 C 284.837 561.790,335.676 488.265,360.737 388.442 C 395.832 248.650,366.660 111.097,295.605 81.328 C 283.248 76.151,268.863 74.288,260.332 76.760 C 237.304 83.433,230.632 118.879,248.272 140.832 C 250.242 143.284,248.269 143.780,241.772 142.469 C 215.866 137.239,205.713 117.741,214.689 90.457 C 221.670 69.237,238.107 56.155,259.745 54.596 C 261.408 54.476,262.950 54.363,263.172 54.344 C 263.394 54.326,266.016 54.429,269.000 54.574 M68.604 123.993 C 76.135 138.837,94.600 156.698,115.943 169.783 C 118.280 171.216,120.095 172.476,119.975 172.583 C 119.856 172.690,118.669 173.504,117.339 174.391 C 95.991 188.630,79.714 216.996,73.566 250.672 L 72.928 254.167 70.940 254.096 C 61.948 253.779,45.516 249.194,33.840 243.744 C 30.715 242.286,30.956 242.723,31.218 238.978 C 34.477 192.442,45.937 152.857,64.314 124.664 C 65.639 122.631,66.801 120.968,66.896 120.969 C 66.992 120.970,67.760 122.330,68.604 123.993 M335.691 124.666 C 353.842 152.473,365.288 191.565,368.650 237.231 C 369.072 242.960,369.340 242.260,366.160 243.744 C 354.460 249.205,338.070 253.778,329.060 254.096 L 327.072 254.167 326.434 250.672 C 320.439 217.864,304.615 190.158,283.060 174.728 C 281.427 173.559,280.090 172.529,280.088 172.439 C 280.086 172.348,281.917 171.133,284.156 169.739 C 306.538 155.805,324.870 137.857,331.979 122.917 C 333.147 120.463,332.859 120.327,335.691 124.666 M220.131 306.653 C 230.532 356.442,239.077 397.217,239.120 397.265 C 239.537 397.732,271.237 258.911,271.234 256.631 C 271.227 251.117,267.790 248.807,261.084 249.808 L 259.668 250.020 259.740 243.222 L 259.812 236.425 279.906 236.356 L 300.000 236.287 300.000 243.235 L 300.000 250.183 297.363 250.158 C 294.933 250.136,294.600 250.198,293.129 250.949 C 290.259 252.412,290.545 251.513,285.104 276.118 C 282.478 287.996,270.688 341.324,258.905 394.624 L 237.481 491.532 233.833 491.607 L 230.184 491.681 229.750 489.456 C 229.512 488.232,222.235 450.759,213.579 406.183 C 204.924 361.606,197.751 324.915,197.640 324.647 C 197.518 324.354,196.708 328.956,195.606 336.207 C 194.599 342.832,188.847 380.491,182.824 419.892 L 171.872 491.532 167.822 491.606 L 163.771 491.680 163.583 490.934 C 163.480 490.524,151.014 437.052,135.881 372.108 C 114.754 281.440,108.228 253.826,107.769 253.157 C 106.592 251.440,104.414 250.154,101.774 249.615 L 100.134 249.281 100.062 242.784 L 99.990 236.287 122.509 236.356 L 145.027 236.425 145.099 242.972 L 145.171 249.519 143.039 249.330 C 137.551 248.845,134.431 252.343,135.007 258.338 C 135.328 261.670,166.799 395.400,166.996 394.267 C 167.256 392.774,194.624 216.449,194.624 216.269 C 194.624 216.192,196.108 216.129,197.922 216.129 L 201.219 216.129 220.131 306.653 M39.516 250.404 C 48.610 253.986,59.664 256.725,69.445 257.818 L 72.357 258.143 72.205 258.978 C 70.675 267.397,70.036 277.954,70.032 294.892 C 70.028 312.797,70.385 319.296,72.192 334.140 C 77.300 376.116,90.711 416.292,112.878 456.028 C 113.779 457.644,114.516 458.997,114.516 459.035 C 114.516 459.714,105.981 465.496,101.882 467.594 C 95.413 470.905,81.096 475.806,77.896 475.806 C 76.768 475.806,67.420 455.129,61.446 439.421 C 43.404 391.985,32.876 339.547,30.622 285.887 C 30.295 278.106,30.384 247.414,30.735 246.846 C 30.859 246.645,31.920 247.018,33.942 247.972 C 35.603 248.756,38.112 249.851,39.516 250.404 M369.575 262.854 C 369.995 319.164,361.439 372.966,343.810 424.866 C 337.197 444.333,323.800 475.806,322.126 475.806 C 318.905 475.806,304.611 470.917,298.118 467.594 C 293.976 465.474,285.484 459.713,285.484 459.023 C 285.484 458.977,286.161 457.745,286.989 456.284 C 309.887 415.901,324.120 371.700,328.617 327.016 C 330.815 305.171,330.606 279.027,328.090 261.106 C 327.869 259.531,327.719 258.217,327.756 258.185 C 327.792 258.154,329.093 257.984,330.645 257.808 C 342.809 256.431,356.399 252.641,366.268 247.873 C 367.809 247.129,369.059 246.675,369.204 246.807 C 369.353 246.943,369.505 253.501,369.575 262.854 M118.975 466.599 C 135.742 494.862,155.430 518.574,174.160 533.061 C 176.998 535.256,177.353 535.619,177.155 536.123 C 173.626 545.056,163.862 557.316,153.958 565.247 L 151.870 566.919 148.852 564.781 C 125.571 548.291,104.154 523.453,86.157 492.070 C 83.175 486.871,79.223 479.551,79.346 479.456 C 79.395 479.418,80.887 479.051,82.661 478.640 C 94.569 475.882,107.281 470.037,114.785 463.870 C 115.598 463.202,116.344 462.650,116.443 462.645 C 116.542 462.639,117.682 464.419,118.975 466.599 M285.839 464.348 C 293.779 470.534,305.798 475.988,317.339 478.644 C 319.113 479.053,320.605 479.418,320.654 479.456 C 320.704 479.494,319.812 481.259,318.672 483.378 C 299.163 519.647,276.089 547.352,250.459 565.283 L 248.138 566.908 245.910 565.115 C 237.084 558.012,227.950 547.008,224.022 538.745 C 222.383 535.297,222.197 535.878,225.840 533.061 C 244.622 518.533,263.826 495.410,281.036 466.599 C 282.339 464.419,283.457 462.634,283.522 462.634 C 283.587 462.634,284.629 463.405,285.839 464.348 M184.140 540.092 C 187.892 542.586,193.540 545.685,197.254 547.288 L 200.000 548.473 202.746 547.288 C 206.356 545.729,212.023 542.635,215.811 540.153 C 217.485 539.057,218.949 538.132,219.064 538.099 C 219.180 538.065,220.077 539.597,221.058 541.503 C 225.509 550.156,234.276 560.713,242.401 567.204 C 243.604 568.165,244.596 569.022,244.606 569.109 C 244.684 569.798,229.882 577.598,223.639 580.157 C 218.448 582.286,218.980 582.259,218.600 580.415 C 216.674 571.091,200.451 566.597,188.844 572.172 C 184.774 574.127,182.084 577.106,181.400 580.415 C 181.020 582.259,181.552 582.286,176.361 580.157 C 170.118 577.598,155.316 569.798,155.394 569.109 C 155.404 569.022,156.396 568.165,157.599 567.204 C 165.795 560.656,174.722 549.868,179.063 541.266 C 179.998 539.414,180.827 537.929,180.905 537.968 C 180.984 538.006,182.440 538.962,184.140 540.092 M205.477 576.207 C 211.540 577.964,213.083 579.793,213.725 585.982 C 214.789 596.255,210.722 608.476,202.899 618.512 C 200.040 622.179,199.058 621.724,194.283 614.516 C 187.424 604.165,184.375 590.518,186.968 581.785 C 188.439 576.833,197.849 573.997,205.477 576.207 " stroke="none" fill="#c4040c" fill-rule="evenodd"></path><path id="path1" d="M194.297 6.868 C 184.115 8.454,175.531 15.496,172.171 25.019 L 171.824 26.001 174.044 26.311 C 183.497 27.634,193.429 34.030,198.401 41.997 C 199.207 43.288,199.926 44.344,200.000 44.344 C 200.074 44.344,200.793 43.288,201.599 41.997 C 206.491 34.158,216.055 27.904,225.440 26.407 L 228.165 25.972 227.824 25.005 C 223.183 11.849,209.577 4.489,194.297 6.868 M166.398 32.537 C 157.329 33.589,149.045 38.888,144.325 46.657 C 143.729 47.637,143.281 48.470,143.328 48.508 C 143.375 48.546,144.200 48.724,145.161 48.903 C 150.455 49.888,157.926 52.331,162.500 54.572 C 177.460 61.903,189.837 79.722,193.412 99.077 C 198.352 125.819,187.265 143.459,162.366 148.476 C 152.810 150.401,136.238 150.439,132.101 148.546 C 119.753 142.893,117.823 106.535,129.254 94.929 C 135.545 88.542,145.132 93.035,148.106 103.763 C 151.575 116.276,145.250 135.215,137.603 135.215 C 132.123 135.215,127.935 119.211,131.518 111.962 C 133.050 108.864,135.889 107.866,137.607 109.821 C 138.652 111.012,138.669 110.826,137.239 113.785 C 134.431 119.596,135.358 126.151,138.825 125.006 C 145.095 122.937,144.904 103.560,138.577 99.852 C 129.163 94.336,122.599 120.512,129.736 135.108 C 135.097 146.071,146.815 142.431,152.771 127.952 C 159.736 111.019,154.544 90.151,141.801 83.862 C 130.855 78.460,107.993 83.698,91.801 95.317 C 83.661 101.159,69.525 115.471,70.050 117.339 C 73.959 131.242,99.200 156.008,122.581 168.881 L 124.328 169.843 126.344 169.051 C 146.549 161.110,160.452 160.810,191.263 167.649 C 199.575 169.494,200.968 169.505,208.199 167.791 C 237.597 160.819,253.336 161.121,273.656 169.044 C 276.009 169.962,275.416 170.137,280.645 166.988 C 303.917 152.973,323.630 133.357,329.555 118.318 L 330.122 116.879 328.585 114.958 C 311.807 93.997,291.680 82.636,269.892 81.829 C 254.776 81.269,245.070 91.808,244.180 109.748 C 242.990 133.748,262.016 152.003,270.380 134.884 C 277.484 120.342,270.612 94.031,261.259 99.962 C 255.061 103.893,254.997 122.967,261.175 125.006 C 264.666 126.158,265.595 119.598,262.764 113.792 C 261.331 110.852,261.346 111.014,262.393 109.821 C 263.384 108.693,264.888 108.526,266.300 109.387 C 273.053 113.505,269.222 135.967,261.907 135.142 C 254.356 134.291,248.531 115.972,251.913 103.707 C 254.292 95.077,261.860 89.830,267.789 92.700 C 281.737 99.452,281.821 142.172,267.899 148.546 C 262.193 151.158,241.428 150.147,231.090 146.754 C 208.217 139.247,199.738 117.412,208.983 89.822 C 216.541 67.267,232.448 53.072,254.839 48.903 C 255.800 48.724,256.625 48.546,256.673 48.508 C 256.867 48.351,254.332 44.518,252.910 42.818 C 238.393 25.462,207.506 31.204,202.050 52.273 C 200.974 56.425,199.223 56.382,197.944 52.171 C 194.071 39.418,180.404 30.912,166.398 32.537 M128.226 54.850 C 95.669 57.198,65.156 77.288,44.343 110.081 C 22.154 145.040,10.215 189.064,6.396 250.000 C 5.934 257.358,5.931 288.664,6.391 296.505 C 10.550 367.446,26.036 429.510,53.376 484.812 C 85.477 549.744,128.332 591.665,179.885 608.565 C 185.087 610.271,185.096 610.271,184.510 608.938 C 182.217 603.719,180.668 597.123,180.450 591.640 L 180.304 587.984 176.106 586.327 C 111.716 560.919,58.023 478.880,34.983 370.699 C 5.074 230.266,39.632 99.532,112.260 78.355 C 132.706 72.393,146.758 75.677,155.225 88.396 C 164.947 102.999,163.793 126.769,152.737 139.651 C 150.107 142.715,150.289 143.189,153.990 142.916 C 166.224 142.015,178.735 135.005,184.102 126.044 C 195.577 106.886,182.860 71.184,160.618 60.117 C 151.739 55.699,140.897 53.936,128.226 54.850 M259.812 54.745 C 243.807 56.011,232.357 62.086,223.413 74.059 C 212.039 89.284,208.308 110.961,214.811 124.030 C 219.828 134.111,232.762 141.941,246.010 142.916 C 249.711 143.189,249.893 142.715,247.263 139.651 C 236.230 126.796,235.059 102.991,244.744 88.443 C 252.464 76.846,264.100 73.219,281.844 76.878 C 361.900 93.390,398.612 238.077,360.899 388.441 C 335.887 488.165,284.501 562.425,223.992 586.289 L 219.624 588.012 219.624 590.679 C 219.624 595.691,218.211 602.334,216.027 607.594 C 214.879 610.358,214.745 610.326,220.069 608.580 C 263.450 594.359,299.751 563.345,330.168 514.516 C 402.387 398.582,415.735 212.393,358.796 115.188 C 335.344 75.151,297.098 51.797,259.812 54.745 M64.310 124.933 C 49.581 147.502,39.217 177.815,34.141 213.172 C 32.917 221.701,32.340 227.225,31.313 240.268 L 31.158 242.229 34.732 243.934 C 44.787 248.732,56.779 252.235,67.876 253.615 C 69.798 253.854,71.685 254.099,72.070 254.160 C 72.744 254.268,72.780 254.204,73.100 252.337 C 78.950 218.235,95.245 189.244,116.801 174.588 C 118.280 173.583,119.590 172.674,119.714 172.567 C 119.837 172.461,118.574 171.552,116.906 170.547 C 95.458 157.624,75.260 138.155,68.209 123.609 C 67.583 122.316,66.992 121.253,66.896 121.247 C 66.801 121.241,65.637 122.900,64.310 124.933 M331.791 123.609 C 324.899 137.828,306.250 156.048,284.902 169.419 C 282.367 171.006,280.245 172.354,280.186 172.413 C 280.127 172.472,281.385 173.428,282.983 174.537 C 304.253 189.309,320.639 217.960,326.631 250.857 C 327.247 254.237,327.259 254.266,327.941 254.158 C 328.319 254.098,330.202 253.853,332.124 253.613 C 340.696 252.543,350.299 250.090,358.602 246.847 C 362.331 245.391,368.817 242.327,368.817 242.021 C 368.817 241.900,368.635 239.442,368.413 236.559 C 365.193 194.824,355.706 159.652,340.388 132.661 C 337.958 128.381,333.394 121.229,333.104 121.247 C 333.008 121.253,332.417 122.316,331.791 123.609 M194.766 216.734 C 194.706 216.919,188.471 256.989,180.911 305.780 C 167.331 393.421,166.955 395.808,166.784 395.637 C 166.735 395.589,159.540 364.887,150.794 327.412 L 134.893 259.274 134.998 256.720 C 135.247 250.677,138.434 248.148,144.288 249.349 L 144.892 249.473 144.892 243.016 L 144.892 236.559 122.446 236.559 L 100.000 236.559 100.000 242.846 L 100.000 249.133 101.266 249.322 C 104.551 249.815,107.845 252.073,108.545 254.311 C 108.705 254.823,121.209 308.377,136.332 373.320 L 163.829 491.398 167.767 491.398 L 171.705 491.398 171.887 490.264 C 172.046 489.265,195.823 333.681,196.949 326.270 C 197.190 324.677,197.459 323.444,197.545 323.531 C 197.631 323.617,205.030 361.392,213.988 407.475 L 230.274 491.263 233.813 491.338 C 237.303 491.412,237.353 491.405,237.495 490.801 C 237.574 490.464,249.318 437.325,263.593 372.715 C 277.868 308.105,289.692 254.832,289.868 254.330 C 290.859 251.506,293.645 249.912,297.513 249.953 L 300.000 249.979 300.000 243.269 L 300.000 236.559 279.973 236.559 L 259.946 236.559 259.946 243.087 L 259.946 249.614 263.374 249.605 C 268.921 249.591,271.122 251.384,271.421 256.157 C 271.534 257.962,240.473 394.804,239.300 397.671 C 239.174 397.979,232.059 364.455,220.332 308.289 C 210.011 258.858,201.451 217.960,201.310 217.406 L 201.055 216.398 197.965 216.398 C 195.731 216.398,194.845 216.491,194.766 216.734 M30.818 250.359 C 27.625 318.295,42.427 397.699,69.769 459.307 C 71.972 464.270,77.250 475.457,77.512 475.720 C 77.669 475.877,86.116 473.695,88.978 472.758 C 97.452 469.983,105.038 466.214,110.751 461.941 C 114.842 458.881,114.783 459.818,111.290 453.451 C 78.086 392.928,63.643 323.656,71.537 262.800 C 72.176 257.877,72.324 258.210,69.398 257.966 C 59.162 257.111,44.226 252.921,33.032 247.763 L 30.984 246.820 30.818 250.359 M366.935 247.778 C 355.775 252.919,340.856 257.111,330.708 257.957 C 327.687 258.209,327.849 257.858,328.476 262.792 C 336.291 324.208,322.037 392.539,288.703 453.451 C 285.219 459.818,285.158 458.882,289.249 461.941 C 294.962 466.214,302.548 469.983,311.022 472.758 C 313.889 473.697,322.331 475.877,322.489 475.719 C 323.294 474.914,331.912 455.751,335.626 446.505 C 354.983 398.325,366.211 345.355,369.130 288.441 C 369.488 281.470,369.514 253.590,369.167 249.433 L 368.952 246.849 366.935 247.778 M114.608 464.151 C 106.940 470.319,96.327 475.260,83.775 478.505 C 81.579 479.072,79.735 479.584,79.678 479.641 C 79.533 479.786,82.867 486.040,86.091 491.667 C 104.087 523.085,124.950 547.456,148.084 564.083 C 152.379 567.169,151.514 567.120,154.727 564.461 C 163.196 557.454,171.117 547.934,175.236 539.812 C 177.546 535.256,177.685 535.947,173.866 532.979 C 155.567 518.759,136.739 496.192,119.731 468.096 L 116.447 462.671 114.608 464.151 M280.574 467.570 C 264.409 494.816,244.595 518.621,226.134 532.978 C 222.315 535.948,222.454 535.256,224.764 539.812 C 228.891 547.949,236.587 557.207,245.145 564.331 C 248.519 567.140,247.617 567.173,251.916 564.083 C 274.985 547.503,295.950 523.035,313.833 491.824 C 317.507 485.411,320.459 479.755,320.229 479.567 C 320.118 479.475,318.817 479.121,317.339 478.779 C 305.974 476.151,294.480 471.042,286.859 465.230 C 285.471 464.172,284.140 463.168,283.902 463.000 C 283.528 462.735,283.069 463.366,280.574 467.570 M179.469 540.793 C 175.135 549.547,166.992 559.471,157.796 567.209 C 156.687 568.142,155.747 568.985,155.706 569.082 C 155.446 569.707,169.667 577.242,176.092 579.884 C 181.349 582.046,180.763 582.043,181.413 579.905 C 185.593 566.142,214.401 566.123,218.579 579.880 C 219.237 582.047,218.646 582.046,223.908 579.890 C 230.191 577.315,244.560 569.702,244.294 569.088 C 244.253 568.995,243.253 568.093,242.070 567.083 C 232.760 559.134,224.975 549.672,220.688 541.096 C 219.921 539.562,219.261 538.271,219.222 538.227 C 219.183 538.183,217.754 539.058,216.046 540.172 C 210.565 543.745,201.540 548.387,200.073 548.387 C 198.486 548.387,189.391 543.750,184.014 540.200 C 182.325 539.085,180.904 538.172,180.855 538.172 C 180.806 538.172,180.183 539.351,179.469 540.793 M195.850 575.981 C 190.268 577.178,187.483 579.393,186.778 583.199 C 184.828 593.724,188.620 607.034,196.597 617.664 C 200.002 622.202,201.410 621.526,206.659 612.834 C 214.386 600.039,216.258 582.560,210.337 578.486 C 206.670 575.963,200.728 574.936,195.850 575.981 " stroke="none" fill="#fcfbfb" fill-rule="evenodd"></path><path id="path2" d="M199.395 6.373 C 199.728 6.437,200.272 6.437,200.605 6.373 C 200.937 6.308,200.665 6.256,200.000 6.256 C 199.335 6.256,199.063 6.308,199.395 6.373 M149.013 111.962 C 149.014 112.997,149.063 113.388,149.121 112.830 C 149.179 112.272,149.178 111.426,149.119 110.948 C 149.059 110.471,149.012 110.927,149.013 111.962 M250.890 111.962 C 250.891 112.849,250.941 113.180,251.001 112.697 C 251.061 112.214,251.060 111.488,250.999 111.084 C 250.937 110.680,250.888 111.075,250.890 111.962 M130.191 119.220 C 130.192 120.108,130.243 120.438,130.302 119.955 C 130.362 119.472,130.361 118.746,130.300 118.342 C 130.238 117.938,130.189 118.333,130.191 119.220 M269.707 119.220 C 269.708 120.108,269.759 120.438,269.818 119.955 C 269.878 119.472,269.877 118.746,269.816 118.342 C 269.754 117.938,269.705 118.333,269.707 119.220 M142.947 149.921 C 143.281 149.986,143.765 149.983,144.022 149.916 C 144.279 149.849,144.005 149.796,143.414 149.799 C 142.823 149.802,142.612 149.857,142.947 149.921 M148.861 149.921 C 149.195 149.986,149.679 149.983,149.936 149.916 C 150.193 149.849,149.919 149.796,149.328 149.799 C 148.737 149.802,148.526 149.857,148.861 149.921 M250.205 149.921 C 250.539 149.986,251.023 149.983,251.280 149.916 C 251.537 149.849,251.263 149.796,250.672 149.799 C 250.081 149.802,249.870 149.857,250.205 149.921 M256.119 149.921 C 256.453 149.986,256.937 149.983,257.194 149.916 C 257.451 149.849,257.177 149.796,256.586 149.799 C 255.995 149.802,255.784 149.857,256.119 149.921 M155.444 162.827 C 155.850 162.889,156.515 162.889,156.922 162.827 C 157.329 162.765,156.996 162.715,156.183 162.715 C 155.370 162.715,155.037 162.765,155.444 162.827 M243.078 162.827 C 243.485 162.889,244.150 162.889,244.556 162.827 C 244.963 162.765,244.630 162.715,243.817 162.715 C 243.004 162.715,242.671 162.765,243.078 162.827 M145.009 243.011 C 145.009 246.633,145.047 248.115,145.093 246.304 C 145.140 244.493,145.140 241.529,145.093 239.718 C 145.047 237.907,145.009 239.388,145.009 243.011 M30.708 248.656 C 30.708 249.173,30.763 249.385,30.830 249.126 C 30.898 248.868,30.898 248.444,30.830 248.185 C 30.763 247.927,30.708 248.138,30.708 248.656 M24.530 255.242 C 24.533 255.833,24.588 256.044,24.652 255.709 C 24.717 255.375,24.714 254.891,24.647 254.634 C 24.580 254.377,24.527 254.651,24.530 255.242 M375.331 255.108 C 375.331 255.625,375.387 255.837,375.454 255.578 C 375.522 255.319,375.522 254.896,375.454 254.637 C 375.387 254.378,375.331 254.590,375.331 255.108 M369.432 256.048 C 369.434 256.788,369.486 257.058,369.548 256.650 C 369.610 256.241,369.608 255.636,369.544 255.305 C 369.480 254.975,369.430 255.309,369.432 256.048 M30.453 256.317 C 30.455 257.056,30.507 257.327,30.569 256.918 C 30.631 256.510,30.629 255.905,30.566 255.574 C 30.502 255.244,30.451 255.578,30.453 256.317 M393.880 256.183 C 393.880 256.700,393.935 256.912,394.003 256.653 C 394.070 256.394,394.070 255.971,394.003 255.712 C 393.935 255.454,393.880 255.665,393.880 256.183 M5.976 256.452 C 5.976 256.969,6.032 257.181,6.099 256.922 C 6.167 256.663,6.167 256.240,6.099 255.981 C 6.032 255.722,5.976 255.934,5.976 256.452 M375.652 270.430 C 375.652 273.609,375.691 274.909,375.738 273.320 C 375.786 271.731,375.786 269.130,375.738 267.540 C 375.691 265.951,375.652 267.251,375.652 270.430 M394.184 267.339 C 394.185 268.817,394.230 269.388,394.285 268.607 C 394.339 267.825,394.338 266.616,394.283 265.918 C 394.228 265.221,394.184 265.860,394.184 267.339 M5.748 268.145 C 5.748 269.919,5.792 270.610,5.844 269.680 C 5.897 268.750,5.897 267.299,5.843 266.455 C 5.790 265.610,5.747 266.371,5.748 268.145 M24.306 270.430 C 24.306 273.313,24.346 274.493,24.394 273.051 C 24.442 271.610,24.442 269.251,24.394 267.809 C 24.346 266.368,24.306 267.547,24.306 270.430 M5.749 277.688 C 5.749 279.536,5.792 280.292,5.844 279.368 C 5.897 278.444,5.897 276.932,5.844 276.008 C 5.792 275.084,5.749 275.840,5.749 277.688 M394.185 278.495 C 394.185 280.047,394.230 280.682,394.284 279.906 C 394.339 279.130,394.339 277.860,394.284 277.083 C 394.230 276.307,394.185 276.942,394.185 278.495 M30.453 279.704 C 30.455 280.444,30.507 280.714,30.569 280.305 C 30.631 279.897,30.629 279.292,30.566 278.961 C 30.502 278.631,30.451 278.965,30.453 279.704 M369.432 279.973 C 369.434 280.712,369.486 280.983,369.548 280.574 C 369.610 280.166,369.608 279.561,369.544 279.230 C 369.480 278.900,369.430 279.234,369.432 279.973 M24.530 285.887 C 24.533 286.478,24.588 286.689,24.652 286.354 C 24.717 286.020,24.714 285.536,24.647 285.279 C 24.580 285.022,24.527 285.296,24.530 285.887 M375.331 286.022 C 375.331 286.539,375.387 286.751,375.454 286.492 C 375.522 286.233,375.522 285.810,375.454 285.551 C 375.387 285.292,375.331 285.504,375.331 286.022 M330.191 287.769 C 330.192 288.656,330.243 288.986,330.302 288.503 C 330.362 288.020,330.361 287.294,330.300 286.890 C 330.238 286.486,330.189 286.882,330.191 287.769 M69.707 288.038 C 69.708 288.925,69.759 289.255,69.818 288.772 C 69.878 288.289,69.877 287.563,69.816 287.159 C 69.754 286.755,69.705 287.151,69.707 288.038 M5.982 289.651 C 5.985 290.242,6.040 290.452,6.104 290.118 C 6.168 289.783,6.166 289.300,6.099 289.043 C 6.031 288.786,5.979 289.059,5.982 289.651 M393.885 289.919 C 393.888 290.511,393.943 290.721,394.007 290.387 C 394.072 290.052,394.069 289.568,394.002 289.311 C 393.935 289.054,393.882 289.328,393.885 289.919 M69.707 302.016 C 69.708 302.903,69.759 303.234,69.818 302.751 C 69.878 302.267,69.877 301.542,69.816 301.138 C 69.754 300.734,69.705 301.129,69.707 302.016 M330.188 302.151 C 330.188 302.964,330.238 303.296,330.300 302.890 C 330.362 302.483,330.362 301.818,330.300 301.411 C 330.238 301.005,330.188 301.337,330.188 302.151 M199.395 575.459 C 199.728 575.523,200.272 575.523,200.605 575.459 C 200.937 575.394,200.665 575.342,200.000 575.342 C 199.335 575.342,199.063 575.394,199.395 575.459 " stroke="none" fill="#e48484" fill-rule="evenodd"></path><path id="path3" d="M174.451 63.239 C 175.110 63.942,175.685 64.516,175.728 64.516 C 175.930 64.516,175.716 64.275,174.530 63.161 L 173.253 61.962 174.451 63.239 M225.254 63.374 L 224.328 64.382 225.336 63.455 C 226.274 62.593,226.468 62.366,226.262 62.366 C 226.217 62.366,225.764 62.819,225.254 63.374 M150.538 82.880 C 150.538 82.926,150.931 83.319,151.411 83.753 L 152.285 84.543 151.495 83.669 C 150.759 82.855,150.538 82.672,150.538 82.880 M334.946 84.483 C 334.946 84.523,335.884 85.461,337.030 86.566 L 339.113 88.575 337.104 86.492 C 335.237 84.557,334.946 84.286,334.946 84.483 M62.895 86.492 L 61.156 88.306 62.970 86.567 C 63.968 85.610,64.785 84.794,64.785 84.752 C 64.785 84.555,64.511 84.807,62.895 86.492 M135.551 99.110 C 135.810 99.178,136.233 99.178,136.492 99.110 C 136.751 99.042,136.539 98.987,136.022 98.987 C 135.504 98.987,135.292 99.042,135.551 99.110 M194.454 110.753 C 194.454 112.305,194.499 112.940,194.553 112.164 C 194.607 111.388,194.607 110.118,194.553 109.341 C 194.499 108.565,194.454 109.200,194.454 110.753 M205.475 110.887 C 205.475 112.366,205.520 112.936,205.575 112.155 C 205.629 111.374,205.629 110.164,205.574 109.467 C 205.518 108.769,205.474 109.409,205.475 110.887 M121.596 120.699 C 121.596 121.808,121.643 122.261,121.701 121.707 C 121.759 121.153,121.759 120.245,121.701 119.691 C 121.643 119.136,121.596 119.590,121.596 120.699 M278.316 120.699 C 278.316 121.808,278.364 122.261,278.422 121.707 C 278.480 121.153,278.480 120.245,278.422 119.691 C 278.364 119.136,278.316 119.590,278.316 120.699 M88.306 143.280 C 89.184 144.167,89.963 144.892,90.037 144.892 C 90.111 144.892,89.453 144.167,88.575 143.280 C 87.697 142.392,86.919 141.667,86.845 141.667 C 86.771 141.667,87.429 142.392,88.306 143.280 M311.283 143.481 L 309.543 145.296 311.358 143.556 C 312.356 142.599,313.172 141.783,313.172 141.742 C 313.172 141.544,312.898 141.796,311.283 143.481 M128.495 145.783 C 128.495 145.829,128.888 146.222,129.368 146.657 L 130.242 147.446 129.452 146.573 C 128.716 145.758,128.495 145.575,128.495 145.783 M270.548 146.573 L 269.758 147.446 270.632 146.657 C 271.446 145.921,271.629 145.699,271.421 145.699 C 271.375 145.699,270.982 146.092,270.548 146.573 M153.431 162.825 C 153.765 162.889,154.249 162.886,154.506 162.819 C 154.763 162.752,154.489 162.699,153.898 162.702 C 153.306 162.705,153.096 162.760,153.431 162.825 M158.000 162.825 C 158.335 162.889,158.819 162.886,159.076 162.819 C 159.333 162.752,159.059 162.699,158.468 162.702 C 157.876 162.705,157.666 162.760,158.000 162.825 M241.065 162.825 C 241.399 162.889,241.883 162.886,242.140 162.819 C 242.397 162.752,242.124 162.699,241.532 162.702 C 240.941 162.705,240.731 162.760,241.065 162.825 M245.635 162.825 C 245.969 162.889,246.453 162.886,246.710 162.819 C 246.967 162.752,246.694 162.699,246.102 162.702 C 245.511 162.705,245.300 162.760,245.635 162.825 M199.395 169.276 C 199.728 169.340,200.272 169.340,200.605 169.276 C 200.937 169.212,200.665 169.159,200.000 169.159 C 199.335 169.159,199.063 169.212,199.395 169.276 M293.952 183.871 C 294.529 184.462,295.062 184.946,295.136 184.946 C 295.210 184.946,294.798 184.462,294.220 183.871 C 293.643 183.280,293.110 182.796,293.036 182.796 C 292.962 182.796,293.374 183.280,293.952 183.871 M103.881 185.551 L 103.091 186.425 103.965 185.635 C 104.446 185.201,104.839 184.808,104.839 184.762 C 104.839 184.554,104.617 184.737,103.881 185.551 M194.799 216.331 C 194.730 216.442,195.660 216.500,196.866 216.460 C 200.818 216.329,201.265 216.224,198.067 216.176 C 196.338 216.150,194.868 216.220,194.799 216.331 M259.733 243.062 C 259.702 246.713,259.768 249.756,259.879 249.825 C 259.990 249.893,260.050 247.935,260.012 245.472 C 259.884 237.205,259.788 236.377,259.733 243.062 M141.196 249.110 C 141.455 249.178,141.878 249.178,142.137 249.110 C 142.396 249.042,142.184 248.987,141.667 248.987 C 141.149 248.987,140.938 249.042,141.196 249.110 M369.148 250.000 C 369.148 250.517,369.204 250.729,369.271 250.470 C 369.339 250.212,369.339 249.788,369.271 249.530 C 369.204 249.271,369.148 249.483,369.148 250.000 M24.525 253.495 C 24.525 254.012,24.580 254.224,24.648 253.965 C 24.715 253.706,24.715 253.283,24.648 253.024 C 24.580 252.765,24.525 252.977,24.525 253.495 M375.331 253.495 C 375.331 254.012,375.387 254.224,375.454 253.965 C 375.522 253.706,375.522 253.283,375.454 253.024 C 375.387 252.765,375.331 252.977,375.331 253.495 M393.890 258.065 C 393.890 258.730,393.943 259.002,394.007 258.669 C 394.071 258.337,394.071 257.792,394.007 257.460 C 393.943 257.127,393.890 257.399,393.890 258.065 M5.982 258.199 C 5.985 258.790,6.040 259.001,6.104 258.666 C 6.168 258.332,6.166 257.848,6.099 257.591 C 6.031 257.334,5.979 257.608,5.982 258.199 M369.441 258.871 C 369.441 259.832,369.490 260.225,369.549 259.745 C 369.609 259.264,369.609 258.478,369.549 257.997 C 369.490 257.517,369.441 257.910,369.441 258.871 M30.465 259.274 C 30.466 260.309,30.514 260.700,30.573 260.142 C 30.631 259.584,30.630 258.737,30.570 258.260 C 30.511 257.783,30.463 258.239,30.465 259.274 M375.628 262.903 C 375.628 264.012,375.675 264.466,375.733 263.911 C 375.791 263.357,375.791 262.450,375.733 261.895 C 375.675 261.341,375.628 261.794,375.628 262.903 M24.286 263.306 C 24.287 264.489,24.334 264.940,24.391 264.307 C 24.448 263.675,24.447 262.707,24.389 262.157 C 24.331 261.606,24.285 262.124,24.286 263.306 M394.188 272.849 C 394.188 274.550,394.231 275.245,394.285 274.395 C 394.338 273.545,394.338 272.154,394.285 271.304 C 394.231 270.454,394.188 271.149,394.188 272.849 M5.731 272.849 C 5.731 273.810,5.780 274.204,5.840 273.723 C 5.899 273.243,5.899 272.456,5.840 271.976 C 5.780 271.495,5.731 271.888,5.731 272.849 M30.465 276.747 C 30.466 277.782,30.514 278.173,30.573 277.615 C 30.631 277.057,30.630 276.210,30.570 275.733 C 30.511 275.256,30.463 275.712,30.465 276.747 M24.286 277.554 C 24.287 278.737,24.334 279.187,24.391 278.555 C 24.448 277.922,24.447 276.955,24.389 276.404 C 24.331 275.854,24.285 276.371,24.286 277.554 M369.441 277.151 C 369.441 278.112,369.490 278.505,369.549 278.024 C 369.609 277.544,369.609 276.757,369.549 276.277 C 369.490 275.796,369.441 276.190,369.441 277.151 M375.628 277.957 C 375.628 279.066,375.675 279.519,375.733 278.965 C 375.791 278.411,375.791 277.503,375.733 276.949 C 375.675 276.394,375.628 276.848,375.628 277.957 M330.181 285.215 C 330.181 285.880,330.233 286.153,330.297 285.820 C 330.361 285.487,330.361 284.943,330.297 284.610 C 330.233 284.278,330.181 284.550,330.181 285.215 M69.697 285.484 C 69.697 286.149,69.749 286.421,69.813 286.089 C 69.877 285.756,69.877 285.212,69.813 284.879 C 69.749 284.546,69.697 284.819,69.697 285.484 M30.713 286.156 C 30.716 286.747,30.771 286.958,30.835 286.623 C 30.900 286.289,30.897 285.805,30.830 285.548 C 30.763 285.291,30.710 285.565,30.713 286.156 M369.148 286.290 C 369.148 286.808,369.204 287.019,369.271 286.761 C 369.339 286.502,369.339 286.079,369.271 285.820 C 369.204 285.561,369.148 285.773,369.148 286.290 M5.982 287.769 C 5.985 288.360,6.040 288.570,6.104 288.236 C 6.168 287.902,6.166 287.418,6.099 287.161 C 6.031 286.904,5.979 287.177,5.982 287.769 M24.525 287.634 C 24.525 288.152,24.580 288.364,24.648 288.105 C 24.715 287.846,24.715 287.423,24.648 287.164 C 24.580 286.905,24.525 287.117,24.525 287.634 M375.331 287.634 C 375.331 288.152,375.387 288.364,375.454 288.105 C 375.522 287.846,375.522 287.423,375.454 287.164 C 375.387 286.905,375.331 287.117,375.331 287.634 M393.885 288.038 C 393.888 288.629,393.943 288.839,394.007 288.505 C 394.072 288.171,394.069 287.687,394.002 287.430 C 393.935 287.173,393.882 287.446,393.885 288.038 M69.697 304.570 C 69.697 305.235,69.749 305.507,69.813 305.175 C 69.877 304.842,69.877 304.298,69.813 303.965 C 69.749 303.632,69.697 303.905,69.697 304.570 M330.181 304.570 C 330.181 305.235,330.233 305.507,330.297 305.175 C 330.361 304.842,330.361 304.298,330.297 303.965 C 330.233 303.632,330.181 303.905,330.181 304.570 M230.343 491.473 C 230.459 491.589,232.117 491.649,234.027 491.607 L 237.500 491.530 233.816 491.397 C 231.790 491.323,230.227 491.358,230.343 491.473 M165.940 491.598 C 167.092 491.648,168.907 491.648,169.972 491.597 C 171.037 491.546,170.094 491.505,167.876 491.505 C 165.659 491.506,164.787 491.547,165.940 491.598 M240.709 519.960 L 239.919 520.833 240.793 520.044 C 241.274 519.610,241.667 519.216,241.667 519.170 C 241.667 518.962,241.445 519.145,240.709 519.960 M119.344 546.841 C 120.003 547.544,120.577 548.118,120.620 548.118 C 120.822 548.118,120.609 547.877,119.422 546.763 L 118.145 545.565 119.344 546.841 M280.631 546.707 L 279.704 547.715 280.712 546.789 C 281.267 546.279,281.720 545.826,281.720 545.781 C 281.720 545.575,281.493 545.769,280.631 546.707 M123.913 551.411 C 125.027 552.598,125.269 552.812,125.269 552.610 C 125.269 552.567,124.694 551.992,123.992 551.333 L 122.715 550.134 123.913 551.411 M275.523 551.815 L 274.597 552.823 275.605 551.896 C 276.159 551.387,276.613 550.933,276.613 550.888 C 276.613 550.683,276.385 550.876,275.523 551.815 M214.785 574.278 C 214.785 574.324,215.178 574.717,215.659 575.151 L 216.532 575.941 215.743 575.067 C 215.007 574.253,214.785 574.070,214.785 574.278 " stroke="none" fill="#e9a3a3" fill-rule="evenodd"></path><path id="path4" d="M135.153 54.496 C 135.636 54.556,136.362 54.554,136.766 54.493 C 137.170 54.432,136.774 54.383,135.887 54.384 C 135.000 54.386,134.670 54.436,135.153 54.496 M263.378 54.496 C 263.862 54.556,264.587 54.554,264.991 54.493 C 265.395 54.432,265.000 54.383,264.113 54.384 C 263.226 54.386,262.895 54.436,263.378 54.496 M128.968 75.728 C 129.303 75.792,129.786 75.790,130.043 75.722 C 130.300 75.655,130.027 75.602,129.435 75.605 C 128.844 75.608,128.634 75.663,128.968 75.728 M270.097 75.728 C 270.432 75.792,270.915 75.790,271.172 75.722 C 271.430 75.655,271.156 75.602,270.565 75.605 C 269.973 75.608,269.763 75.663,270.097 75.728 M131.123 81.649 C 131.755 81.706,132.723 81.705,133.273 81.647 C 133.824 81.589,133.306 81.543,132.124 81.544 C 130.941 81.545,130.490 81.592,131.123 81.649 M266.875 81.649 C 267.508 81.706,268.475 81.705,269.026 81.647 C 269.576 81.589,269.059 81.543,267.876 81.544 C 266.694 81.545,266.243 81.592,266.875 81.649 M135.013 92.121 C 135.272 92.188,135.696 92.188,135.954 92.121 C 136.213 92.053,136.001 91.998,135.484 91.998 C 134.966 91.998,134.755 92.053,135.013 92.121 M264.046 92.121 C 264.304 92.188,264.728 92.188,264.987 92.121 C 265.245 92.053,265.034 91.998,264.516 91.998 C 263.999 91.998,263.787 92.053,264.046 92.121 M77.674 99.126 L 76.747 100.134 77.755 99.208 C 78.310 98.699,78.763 98.245,78.763 98.200 C 78.763 97.995,78.536 98.188,77.674 99.126 M321.237 98.202 C 321.237 98.249,321.630 98.642,322.110 99.076 L 322.984 99.866 322.194 98.992 C 321.458 98.178,321.237 97.995,321.237 98.202 M74.849 101.949 L 74.059 102.823 74.933 102.033 C 75.747 101.297,75.930 101.075,75.722 101.075 C 75.676 101.075,75.283 101.468,74.849 101.949 M320.027 105.376 C 321.054 106.411,321.955 107.258,322.029 107.258 C 322.103 107.258,321.323 106.411,320.296 105.376 C 319.269 104.341,318.368 103.495,318.294 103.495 C 318.220 103.495,319.000 104.341,320.027 105.376 M79.696 105.444 L 78.091 107.124 79.772 105.519 C 81.332 104.029,81.575 103.763,81.376 103.763 C 81.334 103.763,80.578 104.519,79.696 105.444 M188.531 109.409 C 188.531 110.517,188.579 110.971,188.637 110.417 C 188.695 109.862,188.695 108.955,188.637 108.401 C 188.579 107.846,188.531 108.300,188.531 109.409 M211.381 109.409 C 211.381 110.517,211.428 110.971,211.486 110.417 C 211.544 109.862,211.544 108.955,211.486 108.401 C 211.428 107.846,211.381 108.300,211.381 109.409 M156.002 111.694 C 156.003 112.728,156.052 113.119,156.110 112.561 C 156.168 112.003,156.167 111.157,156.108 110.679 C 156.049 110.202,156.001 110.659,156.002 111.694 M243.905 111.694 C 243.907 112.728,243.955 113.119,244.013 112.561 C 244.072 112.003,244.071 111.157,244.011 110.679 C 243.952 110.202,243.904 110.659,243.905 111.694 M238.234 114.247 C 238.234 114.765,238.290 114.976,238.357 114.718 C 238.425 114.459,238.425 114.036,238.357 113.777 C 238.290 113.518,238.234 113.730,238.234 114.247 M90.054 144.977 C 90.054 145.023,90.447 145.416,90.927 145.850 L 91.801 146.640 91.012 145.766 C 90.276 144.952,90.054 144.769,90.054 144.977 M145.370 149.928 C 146.002 149.985,146.970 149.984,147.521 149.927 C 148.071 149.869,147.554 149.822,146.371 149.823 C 145.188 149.824,144.738 149.872,145.370 149.928 M252.628 149.928 C 253.260 149.985,254.228 149.984,254.779 149.927 C 255.329 149.869,254.812 149.822,253.629 149.823 C 252.446 149.824,251.996 149.872,252.628 149.928 M111.243 236.492 C 117.501 236.532,127.662 236.532,133.824 236.492 C 139.986 236.452,134.866 236.419,122.446 236.419 C 110.027 236.419,104.986 236.452,111.243 236.492 M269.980 236.492 C 275.572 236.532,284.644 236.532,290.141 236.492 C 295.637 236.451,291.062 236.418,279.973 236.418 C 268.884 236.418,264.387 236.451,269.980 236.492 M369.428 253.763 C 369.428 254.429,369.480 254.701,369.545 254.368 C 369.609 254.036,369.609 253.491,369.545 253.159 C 369.480 252.826,369.428 253.098,369.428 253.763 M30.450 254.032 C 30.450 254.698,30.502 254.970,30.566 254.637 C 30.630 254.304,30.630 253.760,30.566 253.427 C 30.502 253.095,30.450 253.367,30.450 254.032 M393.880 254.570 C 393.880 255.087,393.935 255.299,394.003 255.040 C 394.070 254.782,394.070 254.358,394.003 254.099 C 393.935 253.841,393.880 254.052,393.880 254.570 M5.976 254.839 C 5.976 255.356,6.032 255.568,6.099 255.309 C 6.167 255.050,6.167 254.627,6.099 254.368 C 6.032 254.110,5.976 254.321,5.976 254.839 M375.346 257.124 C 375.348 257.863,375.400 258.133,375.462 257.725 C 375.524 257.316,375.522 256.711,375.458 256.381 C 375.394 256.050,375.344 256.384,375.346 257.124 M24.536 257.258 C 24.536 257.923,24.588 258.196,24.652 257.863 C 24.716 257.530,24.716 256.986,24.652 256.653 C 24.588 256.321,24.536 256.593,24.536 257.258 M394.172 263.172 C 394.172 264.133,394.221 264.526,394.280 264.046 C 394.340 263.565,394.340 262.779,394.280 262.298 C 394.221 261.818,394.172 262.211,394.172 263.172 M5.731 263.441 C 5.731 264.402,5.780 264.795,5.840 264.315 C 5.899 263.834,5.899 263.048,5.840 262.567 C 5.780 262.087,5.731 262.480,5.731 263.441 M329.901 281.452 C 329.901 281.969,329.956 282.181,330.024 281.922 C 330.092 281.663,330.092 281.240,330.024 280.981 C 329.956 280.722,329.901 280.934,329.901 281.452 M5.731 282.527 C 5.731 283.488,5.780 283.881,5.840 283.401 C 5.899 282.920,5.899 282.134,5.840 281.653 C 5.780 281.173,5.731 281.566,5.731 282.527 M30.450 281.989 C 30.450 282.655,30.502 282.927,30.566 282.594 C 30.630 282.261,30.630 281.717,30.566 281.384 C 30.502 281.052,30.450 281.324,30.450 281.989 M69.955 281.720 C 69.955 282.238,70.010 282.450,70.078 282.191 C 70.145 281.932,70.145 281.509,70.078 281.250 C 70.010 280.991,69.955 281.203,69.955 281.720 M369.428 282.258 C 369.428 282.923,369.480 283.196,369.545 282.863 C 369.609 282.530,369.609 281.986,369.545 281.653 C 369.480 281.321,369.428 281.593,369.428 282.258 M394.172 282.796 C 394.172 283.757,394.221 284.150,394.280 283.669 C 394.340 283.189,394.340 282.403,394.280 281.922 C 394.221 281.442,394.172 281.835,394.172 282.796 M24.539 283.737 C 24.541 284.476,24.593 284.746,24.655 284.338 C 24.717 283.929,24.715 283.324,24.652 282.994 C 24.588 282.663,24.537 282.997,24.539 283.737 M375.346 284.005 C 375.348 284.745,375.400 285.015,375.462 284.607 C 375.524 284.198,375.522 283.593,375.458 283.262 C 375.394 282.932,375.344 283.266,375.346 284.005 M369.148 289.247 C 369.148 289.765,369.204 289.976,369.271 289.718 C 369.339 289.459,369.339 289.036,369.271 288.777 C 369.204 288.518,369.148 288.730,369.148 289.247 M330.222 295.027 C 330.222 298.280,330.261 299.573,330.308 297.902 C 330.356 296.230,330.355 293.569,330.308 291.988 C 330.261 290.407,330.222 291.774,330.222 295.027 M69.737 295.027 C 69.738 298.132,69.777 299.365,69.824 297.768 C 69.872 296.170,69.872 293.630,69.824 292.122 C 69.776 290.615,69.737 291.922,69.737 295.027 M375.062 291.129 C 375.062 291.647,375.118 291.858,375.185 291.599 C 375.253 291.341,375.253 290.917,375.185 290.659 C 375.118 290.400,375.062 290.612,375.062 291.129 M5.976 291.398 C 5.976 291.915,6.032 292.127,6.099 291.868 C 6.167 291.610,6.167 291.186,6.099 290.927 C 6.032 290.669,5.976 290.880,5.976 291.398 M393.880 291.667 C 393.880 292.184,393.935 292.396,394.003 292.137 C 394.070 291.878,394.070 291.455,394.003 291.196 C 393.935 290.937,393.880 291.149,393.880 291.667 M69.955 308.333 C 69.955 308.851,70.010 309.063,70.078 308.804 C 70.145 308.545,70.145 308.122,70.078 307.863 C 70.010 307.604,69.955 307.816,69.955 308.333 M329.901 308.602 C 329.901 309.120,329.956 309.331,330.024 309.073 C 330.092 308.814,330.092 308.390,330.024 308.132 C 329.956 307.873,329.901 308.085,329.901 308.602 M273.647 545.632 L 272.177 547.177 273.723 545.708 C 274.573 544.900,275.269 544.204,275.269 544.162 C 275.269 543.963,275.012 544.196,273.647 545.632 M125.941 545.430 C 126.518 546.022,127.051 546.505,127.125 546.505 C 127.199 546.505,126.787 546.022,126.210 545.430 C 125.632 544.839,125.099 544.355,125.025 544.355 C 124.951 544.355,125.363 544.839,125.941 545.430 M278.081 549.261 L 276.747 550.672 278.159 549.338 C 278.935 548.604,279.570 547.969,279.570 547.927 C 279.570 547.726,279.321 547.949,278.081 549.261 M121.640 549.194 C 122.217 549.785,122.750 550.269,122.824 550.269 C 122.898 550.269,122.486 549.785,121.909 549.194 C 121.331 548.602,120.798 548.118,120.724 548.118 C 120.650 548.118,121.062 548.602,121.640 549.194 M186.114 589.382 C 186.115 590.565,186.162 591.015,186.219 590.383 C 186.275 589.750,186.275 588.783,186.217 588.232 C 186.159 587.682,186.113 588.199,186.114 589.382 M213.802 589.382 C 213.803 590.565,213.850 591.015,213.907 590.383 C 213.964 589.750,213.963 588.783,213.905 588.232 C 213.847 587.682,213.801 588.199,213.802 589.382 " stroke="none" fill="#dc7474" fill-rule="evenodd"></path></g></svg>